<?xml version="1.0" encoding="UTF-8" standalone="no"?>
<!-- Created with Inkscape (http://www.inkscape.org/) -->

<svg
   version="1.1"
   id="svg1"
   width="733.33331"
   height="533.33331"
   viewBox="0 0 733.33331 533.33331"
   sodipodi:docname="2c5bc0d9-175e-4733-941a-da9f006d5c9c.ai"
   xmlns:inkscape="http://www.inkscape.org/namespaces/inkscape"
   xmlns:sodipodi="http://sodipodi.sourceforge.net/DTD/sodipodi-0.dtd"
   xmlns="http://www.w3.org/2000/svg"
   xmlns:svg="http://www.w3.org/2000/svg">
  <defs
     id="defs1">
    <clipPath
       clipPathUnits="userSpaceOnUse"
       id="clipPath2">
      <path
         d="M 0,400 H 550 V 0 H 0 Z"
         transform="translate(-30.244601,-364.55471)"
         id="path2" />
    </clipPath>
    <clipPath
       clipPathUnits="userSpaceOnUse"
       id="clipPath4">
      <path
         d="M 0,400 H 550 V 0 H 0 Z"
         transform="translate(-96.1099,-356.14401)"
         id="path4" />
    </clipPath>
    <clipPath
       clipPathUnits="userSpaceOnUse"
       id="clipPath6">
      <path
         d="M 0,400 H 550 V 0 H 0 Z"
         transform="translate(-112.78371,-359.73541)"
         id="path6" />
    </clipPath>
    <clipPath
       clipPathUnits="userSpaceOnUse"
       id="clipPath8">
      <path
         d="M 0,400 H 550 V 0 H 0 Z"
         transform="translate(-110.61081,-347.14501)"
         id="path8" />
    </clipPath>
    <clipPath
       clipPathUnits="userSpaceOnUse"
       id="clipPath10">
      <path
         d="M 0,400 H 550 V 0 H 0 Z"
         transform="translate(-105.3931,-355.96581)"
         id="path10" />
    </clipPath>
    <clipPath
       clipPathUnits="userSpaceOnUse"
       id="clipPath12">
      <path
         d="M 0,400 H 550 V 0 H 0 Z"
         transform="translate(-100.7505,-350.04201)"
         id="path12" />
    </clipPath>
    <clipPath
       clipPathUnits="userSpaceOnUse"
       id="clipPath14">
      <path
         d="M 0,400 H 550 V 0 H 0 Z"
         transform="translate(-105.2817,-347.16361)"
         id="path14" />
    </clipPath>
    <clipPath
       clipPathUnits="userSpaceOnUse"
       id="clipPath16">
      <path
         d="M 0,400 H 550 V 0 H 0 Z"
         transform="translate(-40.678701,-347.53521)"
         id="path16" />
    </clipPath>
    <clipPath
       clipPathUnits="userSpaceOnUse"
       id="clipPath18">
      <path
         d="M 0,400 H 550 V 0 H 0 Z"
         transform="translate(-49.815901,-341.77981)"
         id="path18" />
    </clipPath>
    <clipPath
       clipPathUnits="userSpaceOnUse"
       id="clipPath20">
      <path
         d="M 0,400 H 550 V 0 H 0 Z"
         transform="translate(-54.344701,-341.77981)"
         id="path20" />
    </clipPath>
    <clipPath
       clipPathUnits="userSpaceOnUse"
       id="clipPath22">
      <path
         d="M 0,400 H 550 V 0 H 0 Z"
         id="path22" />
    </clipPath>
    <clipPath
       clipPathUnits="userSpaceOnUse"
       id="clipPath24">
      <path
         d="M 0,400 H 550 V 0 H 0 Z"
         transform="translate(-63.750502,-341.77981)"
         id="path24" />
    </clipPath>
    <clipPath
       clipPathUnits="userSpaceOnUse"
       id="clipPath26">
      <path
         d="M 0,400 H 550 V 0 H 0 Z"
         transform="translate(-68.315402,-341.77981)"
         id="path26" />
    </clipPath>
    <clipPath
       clipPathUnits="userSpaceOnUse"
       id="clipPath28">
      <path
         d="M 0,400 H 550 V 0 H 0 Z"
         id="path28" />
    </clipPath>
    <clipPath
       clipPathUnits="userSpaceOnUse"
       id="clipPath30">
      <path
         d="M 0,400 H 550 V 0 H 0 Z"
         transform="translate(-74.596202,-342.43511)"
         id="path30" />
    </clipPath>
    <clipPath
       clipPathUnits="userSpaceOnUse"
       id="clipPath32">
      <path
         d="M 0,400 H 550 V 0 H 0 Z"
         id="path32" />
    </clipPath>
    <clipPath
       clipPathUnits="userSpaceOnUse"
       id="clipPath34">
      <path
         d="M 0,400 H 550 V 0 H 0 Z"
         transform="translate(-78.131799,-341.77981)"
         id="path34" />
    </clipPath>
    <clipPath
       clipPathUnits="userSpaceOnUse"
       id="clipPath36">
      <path
         d="M 0,400 H 550 V 0 H 0 Z"
         id="path36" />
    </clipPath>
    <clipPath
       clipPathUnits="userSpaceOnUse"
       id="clipPath38">
      <path
         d="M 0,400 H 550 V 0 H 0 Z"
         transform="translate(-85.374505,-344.86821)"
         id="path38" />
    </clipPath>
    <clipPath
       clipPathUnits="userSpaceOnUse"
       id="clipPath40">
      <path
         d="M 0,400 H 550 V 0 H 0 Z"
         transform="translate(-89.5186,-341.77981)"
         id="path40" />
    </clipPath>
    <clipPath
       clipPathUnits="userSpaceOnUse"
       id="clipPath42">
      <path
         d="M 0,400 H 550 V 0 H 0 Z"
         transform="translate(-43.928201,-347.49801)"
         id="path42" />
    </clipPath>
    <clipPath
       clipPathUnits="userSpaceOnUse"
       id="clipPath44">
      <path
         d="M 0,400 H 550 V 0 H 0 Z"
         transform="translate(-30.895501,-315.56301)"
         id="path44" />
    </clipPath>
    <clipPath
       clipPathUnits="userSpaceOnUse"
       id="clipPath46">
      <path
         d="M 0,400 H 550 V 0 H 0 Z"
         transform="translate(-176.8467,-296.9258)"
         id="path46" />
    </clipPath>
    <clipPath
       clipPathUnits="userSpaceOnUse"
       id="clipPath48">
      <path
         d="M 0,400 H 550 V 0 H 0 Z"
         transform="translate(-213.79441,-304.88381)"
         id="path48" />
    </clipPath>
    <clipPath
       clipPathUnits="userSpaceOnUse"
       id="clipPath50">
      <path
         d="M 0,400 H 550 V 0 H 0 Z"
         transform="translate(-208.9795,-276.98491)"
         id="path50" />
    </clipPath>
    <clipPath
       clipPathUnits="userSpaceOnUse"
       id="clipPath52">
      <path
         d="M 0,400 H 550 V 0 H 0 Z"
         transform="translate(-197.4175,-296.53121)"
         id="path52" />
    </clipPath>
    <clipPath
       clipPathUnits="userSpaceOnUse"
       id="clipPath54">
      <path
         d="M 0,400 H 550 V 0 H 0 Z"
         transform="translate(-187.1299,-283.40431)"
         id="path54" />
    </clipPath>
    <clipPath
       clipPathUnits="userSpaceOnUse"
       id="clipPath56">
      <path
         d="M 0,400 H 550 V 0 H 0 Z"
         transform="translate(-197.1709,-277.0259)"
         id="path56" />
    </clipPath>
    <clipPath
       clipPathUnits="userSpaceOnUse"
       id="clipPath58">
      <path
         d="M 0,400 H 550 V 0 H 0 Z"
         transform="translate(-54.016601,-277.84961)"
         id="path58" />
    </clipPath>
    <clipPath
       clipPathUnits="userSpaceOnUse"
       id="clipPath60">
      <path
         d="M 0,400 H 550 V 0 H 0 Z"
         transform="translate(-74.263702,-265.09621)"
         id="path60" />
    </clipPath>
    <clipPath
       clipPathUnits="userSpaceOnUse"
       id="clipPath62">
      <path
         d="M 0,400 H 550 V 0 H 0 Z"
         transform="translate(-84.299305,-265.09621)"
         id="path62" />
    </clipPath>
    <clipPath
       clipPathUnits="userSpaceOnUse"
       id="clipPath64">
      <path
         d="M 0,400 H 550 V 0 H 0 Z"
         id="path64" />
    </clipPath>
    <clipPath
       clipPathUnits="userSpaceOnUse"
       id="clipPath66">
      <path
         d="M 0,400 H 550 V 0 H 0 Z"
         transform="translate(-105.1416,-265.09621)"
         id="path66" />
    </clipPath>
    <clipPath
       clipPathUnits="userSpaceOnUse"
       id="clipPath68">
      <path
         d="M 0,400 H 550 V 0 H 0 Z"
         transform="translate(-115.2568,-265.09621)"
         id="path68" />
    </clipPath>
    <clipPath
       clipPathUnits="userSpaceOnUse"
       id="clipPath70">
      <path
         d="M 0,400 H 550 V 0 H 0 Z"
         id="path70" />
    </clipPath>
    <clipPath
       clipPathUnits="userSpaceOnUse"
       id="clipPath72">
      <path
         d="M 0,400 H 550 V 0 H 0 Z"
         transform="translate(-129.1743,-266.54831)"
         id="path72" />
    </clipPath>
    <clipPath
       clipPathUnits="userSpaceOnUse"
       id="clipPath74">
      <path
         d="M 0,400 H 550 V 0 H 0 Z"
         id="path74" />
    </clipPath>
    <clipPath
       clipPathUnits="userSpaceOnUse"
       id="clipPath76">
      <path
         d="M 0,400 H 550 V 0 H 0 Z"
         transform="translate(-137.00931,-265.09621)"
         id="path76" />
    </clipPath>
    <clipPath
       clipPathUnits="userSpaceOnUse"
       id="clipPath78">
      <path
         d="M 0,400 H 550 V 0 H 0 Z"
         id="path78" />
    </clipPath>
    <clipPath
       clipPathUnits="userSpaceOnUse"
       id="clipPath80">
      <path
         d="M 0,400 H 550 V 0 H 0 Z"
         transform="translate(-153.05811,-271.93951)"
         id="path80" />
    </clipPath>
    <clipPath
       clipPathUnits="userSpaceOnUse"
       id="clipPath82">
      <path
         d="M 0,400 H 550 V 0 H 0 Z"
         transform="translate(-162.2412,-265.09621)"
         id="path82" />
    </clipPath>
    <clipPath
       clipPathUnits="userSpaceOnUse"
       id="clipPath84">
      <path
         d="M 0,400 H 550 V 0 H 0 Z"
         transform="translate(-61.217302,-277.76711)"
         id="path84" />
    </clipPath>
    <clipPath
       clipPathUnits="userSpaceOnUse"
       id="clipPath86">
      <path
         d="M 0,400 H 550 V 0 H 0 Z"
         transform="translate(-55.923802,-287.82961)"
         id="path86" />
    </clipPath>
    <clipPath
       clipPathUnits="userSpaceOnUse"
       id="clipPath88">
      <path
         d="M 0,400 H 550 V 0 H 0 Z"
         transform="translate(-74.019502,-300.10011)"
         id="path88" />
    </clipPath>
    <clipPath
       clipPathUnits="userSpaceOnUse"
       id="clipPath90">
      <path
         d="M 0,400 H 550 V 0 H 0 Z"
         transform="translate(-97.957,-296.51221)"
         id="path90" />
    </clipPath>
    <clipPath
       clipPathUnits="userSpaceOnUse"
       id="clipPath92">
      <path
         d="M 0,400 H 550 V 0 H 0 Z"
         transform="translate(-117.56931,-288.14501)"
         id="path92" />
    </clipPath>
    <clipPath
       clipPathUnits="userSpaceOnUse"
       id="clipPath94">
      <path
         d="M 0,400 H 550 V 0 H 0 Z"
         transform="translate(-134.27691,-300.63961)"
         id="path94" />
    </clipPath>
    <clipPath
       clipPathUnits="userSpaceOnUse"
       id="clipPath96">
      <path
         d="M 0,400 H 550 V 0 H 0 Z"
         transform="translate(-151.17141,-286.8872)"
         id="path96" />
    </clipPath>
    <clipPath
       clipPathUnits="userSpaceOnUse"
       id="clipPath98">
      <path
         d="M 0,400 H 550 V 0 H 0 Z"
         id="path98" />
    </clipPath>
    <clipPath
       clipPathUnits="userSpaceOnUse"
       id="clipPath100">
      <path
         d="M 0,400 H 550 V 0 H 0 Z"
         transform="translate(-165.62451,-286.65581)"
         id="path100" />
    </clipPath>
    <clipPath
       clipPathUnits="userSpaceOnUse"
       id="clipPath102">
      <path
         d="M 0,400 H 550 V 0 H 0 Z"
         transform="translate(-41.539601,-352.03811)"
         id="path102" />
    </clipPath>
    <clipPath
       clipPathUnits="userSpaceOnUse"
       id="clipPath104">
      <path
         d="M 0,400 H 550 V 0 H 0 Z"
         transform="translate(-49.706101,-357.57571)"
         id="path104" />
    </clipPath>
    <clipPath
       clipPathUnits="userSpaceOnUse"
       id="clipPath106">
      <path
         d="M 0,400 H 550 V 0 H 0 Z"
         transform="translate(-60.508301,-355.95651)"
         id="path106" />
    </clipPath>
    <clipPath
       clipPathUnits="userSpaceOnUse"
       id="clipPath108">
      <path
         d="M 0,400 H 550 V 0 H 0 Z"
         transform="translate(-69.358901,-352.18071)"
         id="path108" />
    </clipPath>
    <clipPath
       clipPathUnits="userSpaceOnUse"
       id="clipPath110">
      <path
         d="M 0,400 H 550 V 0 H 0 Z"
         transform="translate(-76.898904,-357.81931)"
         id="path110" />
    </clipPath>
    <clipPath
       clipPathUnits="userSpaceOnUse"
       id="clipPath112">
      <path
         d="M 0,400 H 550 V 0 H 0 Z"
         transform="translate(-84.523405,-351.61331)"
         id="path112" />
    </clipPath>
    <clipPath
       clipPathUnits="userSpaceOnUse"
       id="clipPath114">
      <path
         d="M 0,400 H 550 V 0 H 0 Z"
         id="path114" />
    </clipPath>
    <clipPath
       clipPathUnits="userSpaceOnUse"
       id="clipPath116">
      <path
         d="M 0,400 H 550 V 0 H 0 Z"
         transform="translate(-91.2109,-351.57571)"
         id="path116" />
    </clipPath>
  </defs>
  <sodipodi:namedview
     id="namedview1"
     pagecolor="#ffffff"
     bordercolor="#000000"
     borderopacity="0.25"
     inkscape:showpageshadow="2"
     inkscape:pageopacity="0.0"
     inkscape:pagecheckerboard="0"
     inkscape:deskcolor="#d1d1d1">
    <inkscape:page
       x="0"
       y="0"
       inkscape:label="1"
       id="page1"
       width="733.33331"
       height="533.33331"
       margin="332.056 432.13867 45.953335 40.326134"
       bleed="0" />
  </sodipodi:namedview>
  <g
     id="layer-MC0"
     inkscape:groupmode="layer"
     inkscape:label="圖層 1">
    <path
       id="path1"
       d="M 0,0 C 0,0.653 0.247,0.98 0.743,0.98 H 87.257 C 87.752,0.98 88,0.653 88,0 v -29.063 c 0,-0.638 -0.248,-0.957 -0.743,-0.957 H 0.743 C 0.247,-30.02 0,-29.701 0,-29.063 Z"
       style="fill:#4a8504;fill-opacity:1;fill-rule:evenodd;stroke:none"
       transform="matrix(1.3333333,0,0,-1.3333333,40.326133,47.2604)"
       clip-path="url(#clipPath2)" />
    <path
       id="path3"
       d="m 0,0 -0.892,0.278 c 0.013,0.57 0.18,0.985 0.502,1.244 0.21,0.174 0.483,0.285 0.817,0.335 l 16.861,2.117 c 1.411,0.186 2.129,-0.39 2.154,-1.727 l 0.333,-15.041 c 0.026,-1.337 -0.686,-1.956 -2.134,-1.857 L 1.43,-13.37 c 0,0.26 0.006,0.508 0.018,0.743 l 14.967,-1.188 c 1.287,-0.087 1.919,0.47 1.894,1.67 L 18.05,1.337 C 18.012,2.55 17.368,3.064 16.118,2.878 L 1.151,0.984 C 0.52,0.922 0.136,0.594 0,0"
       style="fill:#274602;fill-opacity:1;fill-rule:evenodd;stroke:none"
       transform="matrix(1.3333333,0,0,-1.3333333,128.14653,58.474667)"
       clip-path="url(#clipPath4)" />
    <path
       id="path5"
       d="M 0,0 C 0.965,0.049 1.553,-0.31 1.764,-1.077 1.863,-1.325 1.918,-1.616 1.931,-1.95 l 0.315,-14.633 v -0.204 -0.13 -0.093 c 0.025,-1.262 -0.638,-1.863 -1.986,-1.801 -0.037,0.013 -0.081,0.019 -0.13,0.019 l -15.988,1.207 v 1.411 l 14.707,-1.133 c 0.024,0 0.055,-0.006 0.092,-0.018 0.533,-0.025 0.947,0.062 1.245,0.26 0.197,0.272 0.291,0.65 0.278,1.132 l -0.26,13.11 C 0.191,-2.501 0.136,-2.234 0.037,-2.024 0.012,-2 -0.02,-1.975 -0.056,-1.95 c -0.26,0.174 -0.613,0.248 -1.058,0.223 -0.087,0 -0.174,-0.006 -0.26,-0.019 L -16.23,-3.584 c -0.532,-0.062 -0.885,-0.315 -1.059,-0.761 l -1.262,0.798 c 0.062,0.421 0.229,0.731 0.501,0.929 0.223,0.297 0.57,0.476 1.04,0.538 l 16.694,2.061 C -0.205,-0.006 -0.1,0 0,0"
       style="fill:#ffcc00;fill-opacity:1;fill-rule:evenodd;stroke:none"
       transform="matrix(1.3333333,0,0,-1.3333333,150.37827,53.686133)"
       clip-path="url(#clipPath6)" />
    <path
       id="path7"
       d="M 0,0 C 0.284,0 0.525,-0.111 0.724,-0.334 0.946,-0.544 1.059,-0.78 1.059,-1.04 1.059,-1.325 0.946,-1.572 0.724,-1.782 0.525,-2.005 0.284,-2.117 0,-2.117 c -0.297,0 -0.545,0.112 -0.743,0.335 -0.21,0.21 -0.316,0.457 -0.316,0.742 0,0.26 0.106,0.496 0.316,0.706 C -0.545,-0.111 -0.297,0 0,0 M 0.148,4.29 C 0.421,4.29 0.662,4.178 0.873,3.956 1.083,3.757 1.188,3.516 1.188,3.231 1.188,2.959 1.083,2.711 0.873,2.489 0.662,2.278 0.421,2.173 0.148,2.173 c -0.309,0 -0.563,0.105 -0.761,0.316 -0.21,0.222 -0.316,0.47 -0.316,0.742 0,0.285 0.106,0.526 0.316,0.725 0.198,0.222 0.452,0.334 0.761,0.334 M 0.873,7.855 C 1.083,7.645 1.188,7.403 1.188,7.131 1.188,6.846 1.083,6.599 0.873,6.388 0.662,6.178 0.421,6.073 0.148,6.073 c -0.309,0 -0.563,0.105 -0.761,0.315 -0.21,0.211 -0.316,0.458 -0.316,0.743 0,0.272 0.106,0.514 0.316,0.724 0.198,0.223 0.452,0.334 0.761,0.334 0.273,0 0.514,-0.111 0.725,-0.334 M -6.834,-1.04 c 0,-0.285 -0.111,-0.532 -0.334,-0.742 -0.198,-0.223 -0.433,-0.335 -0.706,-0.335 -0.309,0 -0.563,0.112 -0.761,0.335 -0.21,0.21 -0.316,0.457 -0.316,0.742 0,0.26 0.106,0.496 0.316,0.706 0.198,0.223 0.452,0.334 0.761,0.334 0.273,0 0.508,-0.111 0.706,-0.334 0.223,-0.21 0.334,-0.446 0.334,-0.706 m 3.436,0.706 c 0.21,-0.21 0.315,-0.446 0.315,-0.706 0,-0.285 -0.105,-0.532 -0.315,-0.742 -0.211,-0.223 -0.453,-0.335 -0.724,-0.335 -0.311,0 -0.564,0.112 -0.762,0.335 -0.211,0.21 -0.315,0.457 -0.315,0.742 0,0.26 0.104,0.496 0.315,0.706 0.198,0.223 0.451,0.334 0.762,0.334 0.271,0 0.513,-0.111 0.724,-0.334 M -11.643,0 c 0.285,0 0.526,-0.111 0.724,-0.334 0.223,-0.21 0.334,-0.446 0.334,-0.706 0,-0.285 -0.111,-0.532 -0.334,-0.742 -0.198,-0.223 -0.439,-0.335 -0.724,-0.335 -0.297,0 -0.545,0.112 -0.743,0.335 -0.21,0.21 -0.316,0.457 -0.316,0.742 0,0.26 0.106,0.496 0.316,0.706 0.198,0.223 0.446,0.334 0.743,0.334 m -0.613,3.956 c 0.211,0.222 0.464,0.334 0.761,0.334 0.273,0 0.514,-0.112 0.724,-0.334 0.211,-0.199 0.316,-0.44 0.316,-0.725 0,-0.272 -0.105,-0.52 -0.316,-0.742 -0.21,-0.211 -0.451,-0.316 -0.724,-0.316 -0.297,0 -0.55,0.105 -0.761,0.316 -0.21,0.222 -0.316,0.47 -0.316,0.742 0,0.285 0.106,0.526 0.316,0.725 m 0.761,4.233 c 0.273,0 0.514,-0.111 0.724,-0.334 0.211,-0.21 0.316,-0.452 0.316,-0.724 0,-0.285 -0.105,-0.532 -0.316,-0.743 -0.21,-0.21 -0.451,-0.315 -0.724,-0.315 -0.297,0 -0.55,0.105 -0.761,0.315 -0.21,0.211 -0.316,0.458 -0.316,0.743 0,0.272 0.106,0.514 0.316,0.724 0.211,0.223 0.464,0.334 0.761,0.334 m 7.52,-3.899 c 0.273,0 0.508,-0.112 0.706,-0.334 0.223,-0.199 0.335,-0.44 0.335,-0.725 0,-0.272 -0.112,-0.52 -0.335,-0.742 -0.198,-0.211 -0.433,-0.316 -0.706,-0.316 -0.308,0 -0.562,0.105 -0.76,0.316 -0.211,0.222 -0.316,0.47 -0.316,0.742 0,0.285 0.105,0.526 0.316,0.725 0.198,0.222 0.452,0.334 0.76,0.334 m -3.769,0 c 0.285,0 0.526,-0.112 0.724,-0.334 0.224,-0.199 0.334,-0.44 0.334,-0.725 0,-0.272 -0.11,-0.52 -0.334,-0.742 -0.198,-0.211 -0.439,-0.316 -0.724,-0.316 -0.297,0 -0.544,0.105 -0.742,0.316 -0.211,0.222 -0.316,0.47 -0.316,0.742 0,0.285 0.105,0.526 0.316,0.725 0.198,0.222 0.445,0.334 0.742,0.334 m 0,3.899 c 0.285,0 0.526,-0.111 0.724,-0.334 0.224,-0.21 0.334,-0.452 0.334,-0.724 0,-0.285 -0.11,-0.532 -0.334,-0.743 -0.198,-0.21 -0.439,-0.315 -0.724,-0.315 -0.297,0 -0.544,0.105 -0.742,0.315 -0.211,0.211 -0.316,0.458 -0.316,0.743 0,0.272 0.105,0.514 0.316,0.724 0.198,0.223 0.445,0.334 0.742,0.334 m 4.475,-0.334 c 0.223,-0.21 0.335,-0.452 0.335,-0.724 0,-0.285 -0.112,-0.532 -0.335,-0.743 -0.198,-0.21 -0.433,-0.315 -0.706,-0.315 -0.308,0 -0.562,0.105 -0.76,0.315 -0.211,0.211 -0.316,0.458 -0.316,0.743 0,0.272 0.105,0.514 0.316,0.724 0.198,0.223 0.452,0.334 0.76,0.334 0.273,0 0.508,-0.111 0.706,-0.334"
       style="fill:#ffcc00;fill-opacity:1;fill-rule:evenodd;stroke:none"
       transform="matrix(1.3333333,0,0,-1.3333333,147.48107,70.473333)"
       clip-path="url(#clipPath8)" />
    <path
       id="path9"
       d="m 0,0 c 0.371,0.396 0.829,0.594 1.374,0.594 0.507,0 0.94,-0.198 1.3,-0.594 0.395,-0.384 0.594,-0.817 0.594,-1.3 0,-0.508 -0.199,-0.959 -0.594,-1.355 -0.36,-0.385 -0.793,-0.576 -1.3,-0.576 -0.545,0 -1.003,0.191 -1.374,0.576 -0.372,0.396 -0.558,0.847 -0.558,1.355 0,0.483 0.186,0.916 0.558,1.3"
       style="fill:#274602;fill-opacity:1;fill-rule:evenodd;stroke:none"
       transform="matrix(1.3333333,0,0,-1.3333333,140.52413,58.712267)"
       clip-path="url(#clipPath10)" />
    <path
       id="path11"
       d="m 0,0 c 0,-0.507 -0.198,-0.959 -0.594,-1.355 -0.36,-0.384 -0.786,-0.576 -1.281,-0.576 -0.558,0 -1.016,0.192 -1.375,0.576 -0.383,0.396 -0.575,0.848 -0.575,1.355 0,0.495 0.192,0.928 0.575,1.3 0.359,0.396 0.817,0.594 1.375,0.594 0.495,0 0.921,-0.198 1.281,-0.594 C -0.198,0.928 0,0.495 0,0"
       style="fill:#274602;fill-opacity:1;fill-rule:evenodd;stroke:none"
       transform="matrix(1.3333333,0,0,-1.3333333,134.334,66.610667)"
       clip-path="url(#clipPath12)" />
    <path
       id="path13"
       d="M 0,0 C 0.358,0.396 0.816,0.594 1.374,0.594 1.869,0.594 2.296,0.396 2.654,0 3.063,-0.383 3.268,-0.816 3.268,-1.3 3.268,-1.819 3.063,-2.278 2.654,-2.674 2.296,-3.058 1.869,-3.25 1.374,-3.25 0.816,-3.25 0.358,-3.058 0,-2.674 c -0.385,0.396 -0.576,0.855 -0.576,1.374 0,0.484 0.191,0.917 0.576,1.3"
       style="fill:#274602;fill-opacity:1;fill-rule:evenodd;stroke:none"
       transform="matrix(1.3333333,0,0,-1.3333333,140.3756,70.448533)"
       clip-path="url(#clipPath14)" />
    <path
       id="path15"
       d="m 0,0 c 0.73,-1.213 1.096,-2.525 1.096,-3.937 0,-0.631 -0.081,-1.213 -0.242,-1.745 -0.173,-0.52 -0.439,-0.953 -0.798,-1.3 h -0.688 c 0.05,0.149 0.093,0.291 0.131,0.427 0.012,0.161 0.018,0.328 0.018,0.501 0,0.706 -0.21,1.344 -0.631,1.913 -0.433,0.57 -0.928,0.854 -1.486,0.854 -0.582,0 -1.089,-0.284 -1.523,-0.854 -0.42,-0.569 -0.631,-1.207 -0.631,-1.913 0,-0.309 0.056,-0.618 0.167,-0.928 h -0.687 c -0.359,0.347 -0.619,0.78 -0.78,1.3 -0.185,0.532 -0.278,1.12 -0.278,1.764 0,1.399 0.365,2.711 1.095,3.937 C -4.506,1.22 -3.627,1.82 -2.6,1.82 -1.597,1.82 -0.73,1.213 0,0 m -3.027,-0.093 c -0.111,-0.062 -0.223,-0.148 -0.334,-0.26 -0.112,-0.124 -0.192,-0.26 -0.242,-0.408 -0.062,-0.136 -0.092,-0.279 -0.092,-0.427 0,-0.31 0.105,-0.601 0.315,-0.873 0.211,-0.235 0.452,-0.353 0.725,-0.353 0.111,0 0.216,0.019 0.315,0.056 0.099,0.062 0.236,0.179 0.409,0.353 0.173,0.185 0.26,0.433 0.26,0.742 0,0.322 -0.105,0.607 -0.316,0.855 -0.198,0.247 -0.433,0.371 -0.706,0.371 -0.111,0 -0.223,-0.019 -0.334,-0.056"
       style="fill:#ffcc00;fill-opacity:1;fill-rule:evenodd;stroke:none"
       transform="matrix(1.3333333,0,0,-1.3333333,54.238267,69.953067)"
       clip-path="url(#clipPath16)" />
    <path
       id="path17"
       d="m 0,0 c -0.582,0 -1.05,0.199 -1.404,0.598 -0.319,0.364 -0.478,0.8 -0.478,1.31 0,0.503 0.153,0.922 0.458,1.259 0.346,0.38 0.821,0.571 1.424,0.571 H 2.106 V 3.088 H 0 C -0.374,3.088 -0.678,2.965 -0.91,2.719 -1.114,2.501 -1.224,2.23 -1.237,1.908 -1.248,1.568 -1.15,1.281 -0.946,1.045 -0.717,0.782 -0.402,0.65 0,0.65 H 2.106 V 0 Z"
       style="fill:#ffffff;fill-opacity:1;fill-rule:nonzero;stroke:none"
       transform="matrix(1.3333333,0,0,-1.3333333,66.4212,77.626933)"
       clip-path="url(#clipPath18)" />
    <path
       id="path19"
       d="m 0,0 c -0.583,0 -1.05,0.199 -1.404,0.598 -0.319,0.364 -0.478,0.8 -0.478,1.31 0,0.503 0.153,0.922 0.457,1.259 0.347,0.38 0.822,0.571 1.425,0.571 H 2.106 V 3.088 H 0 C -0.374,3.088 -0.678,2.965 -0.91,2.719 -1.114,2.501 -1.224,2.23 -1.237,1.908 -1.248,1.568 -1.151,1.281 -0.946,1.045 -0.717,0.782 -0.402,0.65 0,0.65 H 2.106 V 0 Z"
       style="fill:#ffffff;fill-opacity:1;fill-rule:nonzero;stroke:none"
       transform="matrix(1.3333333,0,0,-1.3333333,72.4596,77.626933)"
       clip-path="url(#clipPath20)" />
    <path
       id="path21"
       d="M 60.137,343.35 H 58 V 344 h 2.137 z m -2.413,-0.92 h 2.579 v -0.65 h -3.229 v 3.738 h 3.229 v -0.65 h -2.579 z"
       style="fill:#ffffff;fill-opacity:1;fill-rule:nonzero;stroke:none"
       transform="matrix(1.3333333,0,0,-1.3333333,0,533.33333)"
       clip-path="url(#clipPath22)" />
    <path
       id="path23"
       d="M 0,0 H -2.85 V 0.65 H 0 c 0.215,0 0.386,0.054 0.515,0.161 0.117,0.101 0.176,0.22 0.176,0.359 0,0.138 -0.057,0.254 -0.171,0.348 C 0.392,1.622 0.218,1.674 0,1.674 h -1.768 c -0.367,0 -0.658,0.107 -0.874,0.323 -0.193,0.193 -0.291,0.431 -0.291,0.712 0,0.277 0.098,0.513 0.291,0.707 0.216,0.215 0.507,0.322 0.874,0.322 h 2.823 v -0.65 h -2.823 c -0.139,0 -0.248,-0.038 -0.327,-0.114 -0.08,-0.077 -0.12,-0.166 -0.12,-0.27 0,-0.104 0.036,-0.191 0.109,-0.261 0.084,-0.079 0.196,-0.119 0.338,-0.119 H 0 C 0.398,2.324 0.717,2.203 0.957,1.96 1.171,1.738 1.279,1.47 1.279,1.154 1.279,0.839 1.173,0.574 0.962,0.359 0.726,0.12 0.405,0 0,0"
       style="fill:#ffffff;fill-opacity:1;fill-rule:nonzero;stroke:none"
       transform="matrix(1.3333333,0,0,-1.3333333,85.000667,77.626933)"
       clip-path="url(#clipPath24)" />
    <path
       id="path25"
       d="M 0,0 H -2.85 V 0.65 H 0 c 0.215,0 0.386,0.054 0.515,0.161 0.117,0.101 0.176,0.22 0.176,0.359 0,0.138 -0.057,0.254 -0.171,0.348 C 0.392,1.622 0.218,1.674 0,1.674 h -1.768 c -0.367,0 -0.658,0.107 -0.873,0.323 -0.194,0.193 -0.292,0.431 -0.292,0.712 0,0.277 0.098,0.513 0.292,0.707 0.215,0.215 0.506,0.322 0.873,0.322 h 2.823 v -0.65 h -2.823 c -0.139,0 -0.248,-0.038 -0.327,-0.114 -0.08,-0.077 -0.12,-0.166 -0.12,-0.27 0,-0.104 0.036,-0.191 0.109,-0.261 0.084,-0.079 0.196,-0.119 0.338,-0.119 H 0 C 0.398,2.324 0.717,2.203 0.957,1.96 1.171,1.738 1.279,1.47 1.279,1.154 1.279,0.839 1.173,0.574 0.962,0.359 0.726,0.12 0.405,0 0,0"
       style="fill:#ffffff;fill-opacity:1;fill-rule:nonzero;stroke:none"
       transform="matrix(1.3333333,0,0,-1.3333333,91.0872,77.626933)"
       clip-path="url(#clipPath26)" />
    <path
       id="path27"
       d="m 70.26,345.518 h 0.65 v -3.738 h -0.65 z"
       style="fill:#ffffff;fill-opacity:1;fill-rule:nonzero;stroke:none"
       transform="matrix(1.3333333,0,0,-1.3333333,0,533.33333)"
       clip-path="url(#clipPath28)" />
    <path
       id="path29"
       d="m 0,0 c 0.239,0 0.43,0.045 0.572,0.135 0.125,0.08 0.187,0.178 0.187,0.297 0,0.117 -0.064,0.216 -0.192,0.296 C 0.428,0.821 0.239,0.868 0,0.868 h -1.752 v 0.65 H 0 c 0.239,0 0.428,0.048 0.567,0.146 0.128,0.086 0.192,0.192 0.192,0.317 0,0.124 -0.062,0.23 -0.187,0.317 C 0.43,2.392 0.239,2.438 0,2.438 H -2.132 V 0 Z M 0.993,1.196 C 1.256,0.991 1.388,0.736 1.388,0.432 1.388,0.14 1.264,-0.107 1.014,-0.312 0.74,-0.538 0.367,-0.65 -0.104,-0.65 h -2.678 v 3.738 h 2.678 C 0.367,3.088 0.74,2.972 1.014,2.74 1.264,2.532 1.388,2.277 1.388,1.976 1.388,1.667 1.256,1.407 0.993,1.196"
       style="fill:#ffffff;fill-opacity:1;fill-rule:nonzero;stroke:none"
       transform="matrix(1.3333333,0,0,-1.3333333,99.4616,76.7532)"
       clip-path="url(#clipPath30)" />
    <path
       id="path31"
       d="m 76.77,345.518 h 0.65 v -3.738 h -0.65 z"
       style="fill:#ffffff;fill-opacity:1;fill-rule:nonzero;stroke:none"
       transform="matrix(1.3333333,0,0,-1.3333333,0,533.33333)"
       clip-path="url(#clipPath32)" />
    <path
       id="path33"
       d="M 0,0 V 3.738 H 0.65 V 0.65 h 2.574 l 0,-0.65 z"
       style="fill:#ffffff;fill-opacity:1;fill-rule:nonzero;stroke:none"
       transform="matrix(1.3333333,0,0,-1.3333333,104.17573,77.626933)"
       clip-path="url(#clipPath34)" />
    <path
       id="path35"
       d="m 81.948,345.518 h 0.65 v -3.738 h -0.65 z"
       style="fill:#ffffff;fill-opacity:1;fill-rule:nonzero;stroke:none"
       transform="matrix(1.3333333,0,0,-1.3333333,0,533.33333)"
       clip-path="url(#clipPath36)" />
    <path
       id="path37"
       d="M 0,0 V -3.088 H -0.65 V 0 H -2.126 V 0.65 H 1.472 V 0 Z"
       style="fill:#ffffff;fill-opacity:1;fill-rule:nonzero;stroke:none"
       transform="matrix(1.3333333,0,0,-1.3333333,113.83267,73.509067)"
       clip-path="url(#clipPath38)" />
    <path
       id="path39"
       d="m 0,0 h -0.65 v 1.248 l -1.903,2.49 h 0.838 l 1.41,-1.846 1.322,1.846 H 1.851 L 0,1.238 Z"
       style="fill:#ffffff;fill-opacity:1;fill-rule:nonzero;stroke:none"
       transform="matrix(1.3333333,0,0,-1.3333333,119.35813,77.626933)"
       clip-path="url(#clipPath40)" />
    <path
       id="path41"
       d="M 0,0 C -0.111,0 -0.223,-0.019 -0.334,-0.056 -0.446,-0.118 -0.557,-0.204 -0.668,-0.315 -0.78,-0.439 -0.86,-0.576 -0.91,-0.724 -0.972,-0.86 -1.003,-1.003 -1.003,-1.151 c 0,-0.31 0.106,-0.6 0.316,-0.873 0.21,-0.235 0.452,-0.353 0.724,-0.353 0.111,0 0.216,0.019 0.316,0.056 0.099,0.062 0.235,0.179 0.408,0.353 0.174,0.185 0.26,0.433 0.26,0.742 0,0.322 -0.105,0.607 -0.315,0.855 C 0.508,-0.124 0.272,0 0,0 m -3.64,-3.881 c 0,1.399 0.366,2.711 1.096,3.937 0.731,1.201 1.609,1.801 2.637,1.801 1.003,0 1.869,-0.607 2.599,-1.82 0.731,-1.213 1.096,-2.525 1.096,-3.936 0,-0.632 -0.08,-1.214 -0.241,-1.746 -0.173,-0.52 -0.44,-0.953 -0.799,-1.3 H 2.061 c 0.05,0.149 0.093,0.291 0.13,0.427 0.013,0.161 0.019,0.328 0.019,0.501 0,0.706 -0.21,1.344 -0.631,1.913 -0.434,0.57 -0.929,0.854 -1.486,0.854 -0.582,0 -1.09,-0.284 -1.523,-0.854 -0.421,-0.569 -0.631,-1.207 -0.631,-1.913 0,-0.309 0.056,-0.618 0.167,-0.928 h -0.687 c -0.359,0.347 -0.619,0.78 -0.78,1.3 -0.186,0.532 -0.279,1.12 -0.279,1.764"
       style="fill:#ffcc00;fill-opacity:1;fill-rule:evenodd;stroke:none"
       transform="matrix(1.3333333,0,0,-1.3333333,58.570933,70.002667)"
       clip-path="url(#clipPath42)" />
    <path
       id="path43"
       d="M 0,0 C 0,1.448 0.547,2.172 1.646,2.172 H 193.353 C 194.45,2.172 195,1.448 195,0 v -64.401 c 0,-1.414 -0.55,-2.12 -1.647,-2.12 H 1.646 c -1.099,0 -1.646,0.706 -1.646,2.12 z"
       style="fill:#4a8504;fill-opacity:1;fill-rule:evenodd;stroke:none"
       transform="matrix(1.3333333,0,0,-1.3333333,41.194,112.58267)"
       clip-path="url(#clipPath44)" />
    <path
       id="path45"
       d="m 0,0 -1.976,0.617 c 0.028,1.262 0.399,2.181 1.112,2.757 0.466,0.384 1.07,0.631 1.81,0.741 l 37.363,4.691 c 3.127,0.412 4.717,-0.864 4.774,-3.827 l 0.738,-33.33 c 0.056,-2.962 -1.522,-4.335 -4.731,-4.114 l -35.922,2.838 c 0,0.577 0.013,1.126 0.041,1.647 l 33.166,-2.633 c 2.852,-0.193 4.251,1.041 4.195,3.702 L 39.997,2.963 C 39.913,5.65 38.486,6.79 35.717,6.377 L 2.55,2.182 C 1.152,2.044 0.301,1.317 0,0"
       style="fill:#274602;fill-opacity:1;fill-rule:evenodd;stroke:none"
       transform="matrix(1.3333333,0,0,-1.3333333,235.7956,137.43227)"
       clip-path="url(#clipPath46)" />
    <path
       id="path47"
       d="M 0,0 C 2.138,0.109 3.441,-0.686 3.908,-2.387 4.129,-2.935 4.25,-3.58 4.278,-4.32 l 0.699,-32.425 v -0.452 -0.289 -0.206 c 0.057,-2.797 -1.413,-4.128 -4.401,-3.99 -0.082,0.027 -0.18,0.04 -0.288,0.04 l -35.429,2.676 v 3.127 l 32.59,-2.511 c 0.054,0 0.123,-0.014 0.205,-0.041 1.179,-0.055 2.097,0.138 2.757,0.577 0.438,0.603 0.645,1.44 0.617,2.509 l -0.575,29.05 c -0.029,0.713 -0.152,1.304 -0.37,1.771 -0.057,0.053 -0.126,0.109 -0.206,0.164 -0.578,0.384 -1.359,0.549 -2.346,0.493 -0.193,0 -0.385,-0.014 -0.575,-0.041 l -32.92,-4.073 c -1.18,-0.138 -1.962,-0.7 -2.346,-1.687 l -2.798,1.769 c 0.138,0.932 0.507,1.618 1.111,2.058 0.494,0.657 1.262,1.055 2.305,1.192 l 36.991,4.568 C -0.454,-0.014 -0.221,0 0,0"
       style="fill:#ffcc00;fill-opacity:1;fill-rule:evenodd;stroke:none"
       transform="matrix(1.3333333,0,0,-1.3333333,285.0592,126.8216)"
       clip-path="url(#clipPath48)" />
    <path
       id="path49"
       d="m 0,0 c 0.63,0 1.165,-0.247 1.604,-0.74 0.493,-0.466 0.742,-0.988 0.742,-1.563 0,-0.632 -0.249,-1.18 -0.742,-1.646 C 1.165,-4.442 0.63,-4.69 0,-4.69 c -0.658,0 -1.207,0.248 -1.646,0.741 -0.466,0.466 -0.7,1.014 -0.7,1.646 0,0.575 0.234,1.097 0.7,1.563 C -1.207,-0.247 -0.658,0 0,0 m 0.329,9.505 c 0.604,0 1.138,-0.246 1.606,-0.74 C 2.4,8.326 2.634,7.792 2.634,7.161 2.634,6.557 2.4,6.008 1.935,5.515 1.467,5.047 0.933,4.815 0.329,4.815 c -0.686,0 -1.248,0.232 -1.688,0.7 -0.465,0.493 -0.699,1.042 -0.699,1.646 0,0.631 0.234,1.165 0.699,1.604 0.44,0.494 1.002,0.74 1.688,0.74 m 1.606,7.901 C 2.4,16.94 2.634,16.405 2.634,15.801 2.634,15.171 2.4,14.622 1.935,14.156 1.467,13.689 0.933,13.457 0.329,13.457 c -0.686,0 -1.248,0.232 -1.688,0.699 -0.465,0.466 -0.699,1.015 -0.699,1.645 0,0.604 0.234,1.139 0.699,1.605 0.44,0.494 1.002,0.741 1.688,0.741 0.604,0 1.138,-0.247 1.606,-0.741 M -15.143,-2.303 c 0,-0.632 -0.247,-1.18 -0.74,-1.646 -0.44,-0.493 -0.96,-0.741 -1.564,-0.741 -0.686,0 -1.248,0.248 -1.687,0.741 -0.466,0.466 -0.699,1.014 -0.699,1.646 0,0.575 0.233,1.097 0.699,1.563 0.439,0.493 1.001,0.74 1.687,0.74 0.604,0 1.124,-0.247 1.564,-0.74 0.493,-0.466 0.74,-0.988 0.74,-1.563 m 7.613,1.563 c 0.467,-0.466 0.698,-0.988 0.698,-1.563 0,-0.632 -0.231,-1.18 -0.698,-1.646 -0.468,-0.493 -1.002,-0.741 -1.604,-0.741 -0.688,0 -1.248,0.248 -1.688,0.741 -0.467,0.466 -0.699,1.014 -0.699,1.646 0,0.575 0.232,1.097 0.699,1.563 0.44,0.493 1,0.74 1.688,0.74 0.602,0 1.136,-0.247 1.604,-0.74 M -25.8,0 c 0.631,0 1.166,-0.247 1.605,-0.74 0.493,-0.466 0.74,-0.988 0.74,-1.563 0,-0.632 -0.247,-1.18 -0.74,-1.646 -0.439,-0.493 -0.974,-0.741 -1.605,-0.741 -0.658,0 -1.207,0.248 -1.645,0.741 -0.467,0.466 -0.701,1.014 -0.701,1.646 0,0.575 0.234,1.097 0.701,1.563 0.438,0.493 0.987,0.74 1.645,0.74 m -1.359,8.765 c 0.468,0.494 1.029,0.74 1.688,0.74 0.604,0 1.138,-0.246 1.605,-0.74 0.466,-0.439 0.7,-0.973 0.7,-1.604 0,-0.604 -0.234,-1.153 -0.7,-1.646 -0.467,-0.468 -1.001,-0.7 -1.605,-0.7 -0.659,0 -1.22,0.232 -1.688,0.7 -0.465,0.493 -0.699,1.042 -0.699,1.646 0,0.631 0.234,1.165 0.699,1.604 m 1.688,9.382 c 0.604,0 1.138,-0.247 1.605,-0.741 0.466,-0.466 0.7,-1.001 0.7,-1.605 0,-0.63 -0.234,-1.179 -0.7,-1.645 -0.467,-0.467 -1.001,-0.699 -1.605,-0.699 -0.659,0 -1.22,0.232 -1.688,0.699 -0.465,0.466 -0.699,1.015 -0.699,1.645 0,0.604 0.234,1.139 0.699,1.605 0.468,0.494 1.029,0.741 1.688,0.741 M -8.807,9.505 c 0.603,0 1.125,-0.246 1.564,-0.74 0.494,-0.439 0.743,-0.973 0.743,-1.604 0,-0.604 -0.249,-1.153 -0.743,-1.646 -0.439,-0.468 -0.961,-0.7 -1.564,-0.7 -0.684,0 -1.247,0.232 -1.686,0.7 -0.467,0.493 -0.699,1.042 -0.699,1.646 0,0.631 0.232,1.165 0.699,1.604 0.439,0.494 1.002,0.74 1.686,0.74 m -8.352,0 c 0.631,0 1.165,-0.246 1.605,-0.74 0.494,-0.439 0.74,-0.973 0.74,-1.604 0,-0.604 -0.246,-1.153 -0.74,-1.646 -0.44,-0.468 -0.974,-0.7 -1.605,-0.7 -0.659,0 -1.206,0.232 -1.646,0.7 -0.466,0.493 -0.7,1.042 -0.7,1.646 0,0.631 0.234,1.165 0.7,1.604 0.44,0.494 0.987,0.74 1.646,0.74 m 0,8.642 c 0.631,0 1.165,-0.247 1.605,-0.741 0.494,-0.466 0.74,-1.001 0.74,-1.605 0,-0.63 -0.246,-1.179 -0.74,-1.645 -0.44,-0.467 -0.974,-0.699 -1.605,-0.699 -0.659,0 -1.206,0.232 -1.646,0.699 -0.466,0.466 -0.7,1.015 -0.7,1.645 0,0.604 0.234,1.139 0.7,1.605 0.44,0.494 0.987,0.741 1.646,0.741 m 9.916,-0.741 c 0.494,-0.466 0.743,-1.001 0.743,-1.605 0,-0.63 -0.249,-1.179 -0.743,-1.645 -0.439,-0.467 -0.961,-0.699 -1.564,-0.699 -0.684,0 -1.247,0.232 -1.686,0.699 -0.467,0.466 -0.699,1.015 -0.699,1.645 0,0.604 0.232,1.139 0.699,1.605 0.439,0.494 1.002,0.741 1.686,0.741 0.603,0 1.125,-0.247 1.564,-0.741"
       style="fill:#ffcc00;fill-opacity:1;fill-rule:evenodd;stroke:none"
       transform="matrix(1.3333333,0,0,-1.3333333,278.63933,164.02013)"
       clip-path="url(#clipPath50)" />
    <path
       id="path51"
       d="M 0,0 C 0.822,0.877 1.837,1.316 3.045,1.316 4.168,1.316 5.129,0.877 5.925,0 6.801,-0.851 7.241,-1.812 7.241,-2.88 7.241,-4.006 6.801,-5.006 5.925,-5.884 5.129,-6.735 4.168,-7.16 3.045,-7.16 1.837,-7.16 0.822,-6.735 0,-5.884 c -0.824,0.878 -1.235,1.878 -1.235,3.004 0,1.068 0.411,2.029 1.235,2.88"
       style="fill:#274602;fill-opacity:1;fill-rule:evenodd;stroke:none"
       transform="matrix(1.3333333,0,0,-1.3333333,263.22333,137.9584)"
       clip-path="url(#clipPath52)" />
    <path
       id="path53"
       d="m 0,0 c 0,-1.124 -0.439,-2.126 -1.316,-3.003 -0.797,-0.851 -1.743,-1.276 -2.84,-1.276 -1.234,0 -2.249,0.425 -3.046,1.276 -0.849,0.877 -1.274,1.879 -1.274,3.003 0,1.097 0.425,2.057 1.274,2.88 0.797,0.879 1.812,1.317 3.046,1.317 1.097,0 2.043,-0.438 2.84,-1.317 C -0.439,2.057 0,1.097 0,0"
       style="fill:#274602;fill-opacity:1;fill-rule:evenodd;stroke:none"
       transform="matrix(1.3333333,0,0,-1.3333333,249.50653,155.46093)"
       clip-path="url(#clipPath54)" />
    <path
       id="path55"
       d="M 0,0 C 0.794,0.879 1.809,1.317 3.045,1.317 4.142,1.317 5.087,0.879 5.882,0 6.789,-0.849 7.241,-1.809 7.241,-2.88 7.241,-4.031 6.789,-5.047 5.882,-5.925 5.087,-6.775 4.142,-7.2 3.045,-7.2 1.809,-7.2 0.794,-6.775 0,-5.925 c -0.853,0.878 -1.277,1.894 -1.277,3.045 0,1.071 0.424,2.031 1.277,2.88"
       style="fill:#274602;fill-opacity:1;fill-rule:evenodd;stroke:none"
       transform="matrix(1.3333333,0,0,-1.3333333,262.89453,163.96547)"
       clip-path="url(#clipPath56)" />
    <path
       id="path57"
       d="m 0,0 c 1.619,-2.688 2.428,-5.596 2.428,-8.723 0,-1.399 -0.178,-2.689 -0.536,-3.868 -0.384,-1.153 -0.974,-2.112 -1.769,-2.881 H -1.4 c 0.11,0.329 0.207,0.645 0.289,0.947 0.027,0.356 0.041,0.726 0.041,1.11 0,1.564 -0.467,2.977 -1.399,4.239 -0.96,1.262 -2.057,1.893 -3.292,1.893 -1.289,0 -2.413,-0.631 -3.374,-1.893 -0.933,-1.262 -1.399,-2.675 -1.399,-4.239 0,-0.685 0.123,-1.371 0.37,-2.057 h -1.523 c -0.795,0.769 -1.372,1.728 -1.728,2.881 -0.411,1.179 -0.616,2.482 -0.616,3.909 0,3.1 0.808,6.007 2.427,8.723 1.618,2.662 3.566,3.993 5.843,3.993 C -3.539,4.034 -1.619,2.688 0,0 m -6.708,-0.206 c -0.246,-0.137 -0.494,-0.329 -0.741,-0.575 -0.246,-0.275 -0.425,-0.577 -0.534,-0.906 -0.138,-0.302 -0.205,-0.618 -0.205,-0.946 0,-0.687 0.232,-1.33 0.698,-1.934 0.467,-0.522 1.002,-0.783 1.606,-0.783 0.247,0 0.479,0.043 0.699,0.124 0.22,0.137 0.521,0.398 0.906,0.782 0.383,0.411 0.575,0.96 0.575,1.646 0,0.713 -0.233,1.345 -0.699,1.893 -0.439,0.549 -0.96,0.822 -1.564,0.822 -0.247,0 -0.493,-0.041 -0.741,-0.123"
       style="fill:#ffcc00;fill-opacity:1;fill-rule:evenodd;stroke:none"
       transform="matrix(1.3333333,0,0,-1.3333333,72.022133,162.8672)"
       clip-path="url(#clipPath58)" />
    <path
       id="path59"
       d="m 0,0 c -1.29,0 -2.327,0.441 -3.111,1.324 -0.706,0.807 -1.059,1.775 -1.059,2.905 0,1.113 0.337,2.042 1.014,2.788 C -2.388,7.86 -1.336,8.284 0,8.284 H 4.667 V 6.843 H 0 C -0.829,6.843 -1.502,6.571 -2.016,6.025 -2.469,5.542 -2.711,4.942 -2.742,4.229 -2.765,3.475 -2.549,2.838 -2.097,2.315 -1.589,1.732 -0.891,1.44 0,1.44 H 4.667 V 0 Z"
       style="fill:#ffffff;fill-opacity:1;fill-rule:nonzero;stroke:none"
       transform="matrix(1.3333333,0,0,-1.3333333,99.018267,179.87173)"
       clip-path="url(#clipPath60)" />
    <path
       id="path61"
       d="m 0,0 c -1.291,0 -2.328,0.441 -3.111,1.324 -0.706,0.807 -1.059,1.775 -1.059,2.905 0,1.113 0.337,2.042 1.013,2.788 C -2.389,7.86 -1.336,8.284 0,8.284 H 4.667 V 6.843 H 0 C -0.829,6.843 -1.502,6.571 -2.016,6.025 -2.469,5.542 -2.711,4.942 -2.742,4.229 -2.765,3.475 -2.55,2.838 -2.097,2.315 -1.59,1.732 -0.892,1.44 0,1.44 H 4.667 V 0 Z"
       style="fill:#ffffff;fill-opacity:1;fill-rule:nonzero;stroke:none"
       transform="matrix(1.3333333,0,0,-1.3333333,112.39907,179.87173)"
       clip-path="url(#clipPath62)" />
    <path
       id="path63"
       d="m 97.134,268.576 h -4.735 v 1.44 h 4.735 z m -5.346,-2.04 h 5.714 v -1.44 h -7.154 v 8.284 h 7.154 v -1.441 h -5.714 z"
       style="fill:#ffffff;fill-opacity:1;fill-rule:nonzero;stroke:none"
       transform="matrix(1.3333333,0,0,-1.3333333,0,533.33333)"
       clip-path="url(#clipPath64)" />
    <path
       id="path65"
       d="M 0,0 H -6.314 V 1.44 H 0 c 0.476,0 0.855,0.119 1.14,0.357 0.261,0.223 0.392,0.488 0.392,0.795 0,0.306 -0.127,0.564 -0.38,0.772 C 0.868,3.594 0.483,3.71 0,3.71 h -3.917 c -0.814,0 -1.459,0.237 -1.937,0.714 -0.429,0.43 -0.645,0.957 -0.645,1.579 0,0.614 0.216,1.136 0.645,1.566 0.478,0.476 1.123,0.715 1.937,0.715 H 2.338 V 6.843 h -6.255 c -0.308,0 -0.55,-0.084 -0.726,-0.253 -0.177,-0.17 -0.265,-0.369 -0.265,-0.599 0,-0.231 0.08,-0.422 0.241,-0.577 0.185,-0.176 0.434,-0.264 0.75,-0.264 L 0,5.15 C 0.883,5.15 1.589,4.881 2.12,4.343 2.596,3.852 2.833,3.257 2.833,2.558 2.833,1.859 2.6,1.271 2.131,0.795 1.609,0.265 0.898,0 0,0"
       style="fill:#ffffff;fill-opacity:1;fill-rule:nonzero;stroke:none"
       transform="matrix(1.3333333,0,0,-1.3333333,140.1888,179.87173)"
       clip-path="url(#clipPath66)" />
    <path
       id="path67"
       d="M 0,0 H -6.314 V 1.44 H 0 c 0.476,0 0.856,0.119 1.141,0.357 0.26,0.223 0.391,0.488 0.391,0.795 0,0.306 -0.126,0.564 -0.38,0.772 C 0.868,3.594 0.484,3.71 0,3.71 h -3.918 c -0.813,0 -1.458,0.237 -1.935,0.714 -0.43,0.43 -0.646,0.957 -0.646,1.579 0,0.614 0.216,1.136 0.646,1.566 0.477,0.476 1.122,0.715 1.935,0.715 H 2.338 V 6.843 H -3.918 C -4.225,6.843 -4.466,6.759 -4.643,6.59 -4.82,6.42 -4.908,6.221 -4.908,5.991 -4.908,5.76 -4.828,5.569 -4.667,5.414 -4.481,5.238 -4.232,5.15 -3.918,5.15 H 0 C 0.883,5.15 1.589,4.881 2.12,4.343 2.596,3.852 2.834,3.257 2.834,2.558 2.834,1.859 2.6,1.271 2.132,0.795 1.609,0.265 0.898,0 0,0"
       style="fill:#ffffff;fill-opacity:1;fill-rule:nonzero;stroke:none"
       transform="matrix(1.3333333,0,0,-1.3333333,153.67573,179.87173)"
       clip-path="url(#clipPath68)" />
    <path
       id="path69"
       d="m 119.565,273.38 h 1.44 v -8.284 h -1.44 z"
       style="fill:#ffffff;fill-opacity:1;fill-rule:nonzero;stroke:none"
       transform="matrix(1.3333333,0,0,-1.3333333,0,533.33333)"
       clip-path="url(#clipPath70)" />
    <path
       id="path71"
       d="M 0,0 C 0.53,0 0.952,0.099 1.267,0.299 1.544,0.476 1.683,0.694 1.683,0.956 1.683,1.217 1.54,1.436 1.256,1.612 0.949,1.82 0.53,1.923 0,1.923 H -3.882 V 3.364 H 0 c 0.53,0 0.949,0.107 1.256,0.322 C 1.54,3.877 1.683,4.112 1.683,4.39 1.683,4.666 1.544,4.9 1.267,5.092 0.952,5.299 0.53,5.403 0,5.403 H -4.724 V 0 Z M 2.201,2.649 C 2.784,2.196 3.076,1.631 3.076,0.956 3.076,0.311 2.8,-0.238 2.247,-0.693 1.641,-1.191 0.814,-1.44 -0.23,-1.44 H -6.164 V 6.843 H -0.23 C 0.814,6.843 1.641,6.586 2.247,6.071 2.8,5.61 3.076,5.046 3.076,4.377 3.076,3.694 2.784,3.118 2.201,2.649"
       style="fill:#ffffff;fill-opacity:1;fill-rule:nonzero;stroke:none"
       transform="matrix(1.3333333,0,0,-1.3333333,172.2324,177.9356)"
       clip-path="url(#clipPath72)" />
    <path
       id="path73"
       d="m 133.99,273.38 h 1.44 v -8.284 h -1.44 z"
       style="fill:#ffffff;fill-opacity:1;fill-rule:nonzero;stroke:none"
       transform="matrix(1.3333333,0,0,-1.3333333,0,533.33333)"
       clip-path="url(#clipPath74)" />
    <path
       id="path75"
       d="M 0,0 V 8.284 H 1.44 V 1.44 h 5.703 l 0,-1.44 z"
       style="fill:#ffffff;fill-opacity:1;fill-rule:nonzero;stroke:none"
       transform="matrix(1.3333333,0,0,-1.3333333,182.67907,179.87173)"
       clip-path="url(#clipPath76)" />
    <path
       id="path77"
       d="m 145.466,273.38 h 1.44 v -8.284 h -1.44 z"
       style="fill:#ffffff;fill-opacity:1;fill-rule:nonzero;stroke:none"
       transform="matrix(1.3333333,0,0,-1.3333333,0,533.33333)"
       clip-path="url(#clipPath78)" />
    <path
       id="path79"
       d="M 0,0 V -6.843 H -1.44 V 0 H -4.712 V 1.44 H 3.261 V 0 Z"
       style="fill:#ffffff;fill-opacity:1;fill-rule:nonzero;stroke:none"
       transform="matrix(1.3333333,0,0,-1.3333333,204.07747,170.74733)"
       clip-path="url(#clipPath80)" />
    <path
       id="path81"
       d="m 0,0 h -1.44 v 2.764 l -4.218,5.52 h 1.857 l 3.126,-4.091 2.927,4.091 h 1.85 L 0,2.743 Z"
       style="fill:#ffffff;fill-opacity:1;fill-rule:nonzero;stroke:none"
       transform="matrix(1.3333333,0,0,-1.3333333,216.3216,179.87173)"
       clip-path="url(#clipPath82)" />
    <path
       id="path83"
       d="m 0,0 c -0.247,0 -0.494,-0.041 -0.741,-0.123 -0.247,-0.138 -0.494,-0.329 -0.74,-0.576 -0.247,-0.275 -0.426,-0.576 -0.536,-0.905 -0.136,-0.302 -0.206,-0.618 -0.206,-0.946 0,-0.687 0.234,-1.331 0.701,-1.935 0.466,-0.521 1.001,-0.782 1.604,-0.782 0.247,0 0.48,0.042 0.7,0.123 0.22,0.138 0.521,0.398 0.905,0.783 0.384,0.411 0.576,0.96 0.576,1.645 0,0.714 -0.233,1.345 -0.7,1.894 C 1.125,-0.273 0.604,0 0,0 m -8.065,-8.6 c 0,3.1 0.809,6.008 2.428,8.724 1.618,2.661 3.566,3.992 5.843,3.992 2.222,0 4.141,-1.345 5.76,-4.033 1.618,-2.688 2.428,-5.597 2.428,-8.724 0,-1.399 -0.179,-2.688 -0.535,-3.868 -0.384,-1.152 -0.973,-2.112 -1.77,-2.88 H 4.567 c 0.11,0.329 0.205,0.645 0.287,0.947 0.029,0.356 0.043,0.726 0.043,1.11 0,1.563 -0.466,2.977 -1.399,4.238 -0.961,1.263 -2.058,1.893 -3.292,1.893 -1.29,0 -2.414,-0.63 -3.374,-1.893 -0.933,-1.261 -1.399,-2.675 -1.399,-4.238 0,-0.685 0.123,-1.371 0.37,-2.057 H -5.72 c -0.795,0.768 -1.371,1.728 -1.727,2.88 -0.413,1.18 -0.618,2.483 -0.618,3.909"
       style="fill:#ffcc00;fill-opacity:1;fill-rule:evenodd;stroke:none"
       transform="matrix(1.3333333,0,0,-1.3333333,81.623067,162.9772)"
       clip-path="url(#clipPath84)" />
    <path
       id="path85"
       d="M 0,0 C 0.536,-0.562 0.993,-1.067 1.374,-1.522 1.374,-1.55 1.339,-1.61 1.268,-1.704 0.86,-2.263 0.643,-2.543 0.614,-2.543 c -0.58,0.715 -1.203,1.379 -1.87,1.992 -0.546,0.477 -0.999,0.818 -1.358,1.022 0,0.067 0.219,0.353 0.66,0.856 0.069,0.094 0.124,0.142 0.165,0.142 C -1.063,0.944 -0.467,0.454 0,0 m -2.946,12.655 h 1.388 V 3.041 c 0,-0.174 -0.101,-0.261 -0.304,-0.261 h -0.803 c -0.189,0 -0.281,0.087 -0.281,0.261 z M -5.326,1.269 c 0.697,-0.936 1.336,-1.933 1.917,-2.992 0,-0.201 -0.045,-0.31 -0.132,-0.324 -0.482,-0.33 -0.868,-0.496 -1.16,-0.496 -0.622,1.318 -1.214,2.411 -1.774,3.279 0,0.145 0.311,0.364 0.933,0.656 0.115,0 0.186,-0.041 0.216,-0.123 m -1.17,11.386 h 1.39 V 3.041 c 0,-0.174 -0.103,-0.261 -0.305,-0.261 h -0.803 c -0.186,0 -0.282,0.087 -0.282,0.261 z m -3.549,0 h 1.389 V 3.041 c 0,-0.174 -0.102,-0.261 -0.303,-0.261 h -0.804 c -0.188,0 -0.282,0.087 -0.282,0.261 z M -9.184,1.269 c 0.558,-0.912 1.067,-1.883 1.532,-2.915 0,-0.201 -0.045,-0.31 -0.133,-0.324 -0.482,-0.33 -0.868,-0.497 -1.158,-0.497 -0.487,1.287 -0.951,2.355 -1.389,3.203 0,0.145 0.31,0.364 0.932,0.656 0.115,0 0.187,-0.041 0.216,-0.123 m 9.247,12.004 c 0.153,0 0.231,-0.085 0.231,-0.258 v -0.718 c 0,-0.173 -0.078,-0.258 -0.231,-0.258 h -12.73 c -0.155,0 -0.232,0.085 -0.232,0.258 v 0.718 c 0,0.173 0.077,0.258 0.232,0.258 z m -13.579,-0.618 h 1.389 V 3.041 c 0,-0.174 -0.102,-0.261 -0.305,-0.261 h -0.803 c -0.187,0 -0.281,0.087 -0.281,0.261 z M 0.371,3.397 c 0.154,0 0.231,-0.085 0.231,-0.256 V 2.421 C 0.602,2.249 0.525,2.164 0.371,2.164 h -15.893 c -0.155,0 -0.232,0.085 -0.232,0.257 v 0.72 c 0,0.171 0.077,0.256 0.232,0.256 z m -12.742,12.114 c 1.076,-0.532 1.613,-0.847 1.613,-0.942 0,-0.123 -0.049,-0.185 -0.145,-0.185 -0.221,-0.014 -0.365,-0.082 -0.434,-0.204 -0.663,-1.261 -1.32,-2.216 -1.969,-2.864 -0.367,-0.389 -0.989,-0.946 -1.868,-1.669 -0.137,0 -0.266,0.062 -0.387,0.185 -0.19,0.151 -0.387,0.317 -0.59,0.495 -0.096,0.069 -0.143,0.144 -0.143,0.226 0.458,0.381 0.916,0.78 1.374,1.197 0.592,0.542 1.112,1.15 1.557,1.82 0.376,0.598 0.672,1.186 0.888,1.766 0.028,0.117 0.062,0.175 0.104,0.175 M 0.911,8.413 c 0.153,0 0.232,-0.086 0.232,-0.258 V 7.435 C 1.143,7.264 1.064,7.178 0.911,7.178 h -17.128 c -0.154,0 -0.231,0.086 -0.231,0.257 v 0.72 c 0,0.172 0.077,0.258 0.231,0.258 z m -14.369,-6.944 1.128,-0.84 c 0.109,-0.109 0.163,-0.199 0.163,-0.267 0,-0.053 -0.045,-0.088 -0.134,-0.105 -0.12,-0.019 -0.218,-0.062 -0.293,-0.133 -0.329,-0.475 -0.682,-0.916 -1.056,-1.32 -0.435,-0.441 -0.998,-0.889 -1.687,-1.347 -0.161,0 -0.268,0.055 -0.323,0.165 -0.281,0.218 -0.517,0.416 -0.704,0.593 -0.108,0.041 -0.161,0.089 -0.161,0.144 0,0.035 0.022,0.069 0.067,0.103 0.329,0.139 0.597,0.294 0.807,0.467 0.446,0.345 0.836,0.718 1.163,1.115 0.284,0.345 0.597,0.777 0.941,1.295 0.029,0.086 0.059,0.13 0.089,0.13"
       style="fill:#ffffff;fill-opacity:1;fill-rule:nonzero;stroke:none"
       transform="matrix(1.3333333,0,0,-1.3333333,74.565067,149.56053)"
       clip-path="url(#clipPath86)" />
    <path
       id="path87"
       d="M 0,0 1.123,-0.463 C 1.3,-0.54 1.389,-0.63 1.389,-0.732 c 0,-0.07 -0.043,-0.119 -0.128,-0.147 -0.122,0 -0.196,-0.048 -0.219,-0.145 C 0.711,-1.76 0.387,-2.328 0.07,-2.73 c -0.074,-0.083 -0.129,-0.124 -0.166,-0.124 -0.075,0 -0.177,0.037 -0.303,0.111 -0.252,0.124 -0.488,0.235 -0.701,0.336 -0.103,0.036 -0.154,0.068 -0.154,0.093 0,0.014 0.019,0.041 0.055,0.083 0.279,0.375 0.491,0.702 0.636,0.98 0.207,0.361 0.356,0.723 0.454,1.084 C -0.072,-0.055 -0.036,0 0,0 m -3.028,-9.721 h 1.389 v -4.986 c 0,-0.173 -0.102,-0.261 -0.303,-0.261 h -0.803 c -0.189,0 -0.283,0.088 -0.283,0.261 z M -1.227,2.826 C -1.227,2.652 -1.296,2.558 -1.433,2.544 -1.57,2.53 -1.639,2.398 -1.639,2.153 V 1.108 c 0,-0.173 -0.102,-0.26 -0.303,-0.26 h -0.803 c -0.189,0 -0.283,0.087 -0.283,0.26 v 1.74 c 0,0.159 0.095,0.238 0.286,0.238 1.01,0 1.515,-0.087 1.515,-0.26 m -2.918,-4.043 c 0.195,-0.337 0.362,-0.696 0.501,-1.078 0,-0.051 -0.406,-0.186 -1.216,-0.406 -0.055,0.242 -0.169,0.537 -0.345,0.884 -0.198,0.392 -0.456,0.792 -0.774,1.199 0,0.087 0.341,0.292 1.023,0.618 0.334,-0.444 0.603,-0.85 0.811,-1.217 m 5.622,-5.572 c 0.135,0 0.202,-0.075 0.202,-0.226 v -0.629 c 0,-0.15 -0.067,-0.226 -0.202,-0.226 h -7.465 c -0.136,0 -0.203,0.076 -0.203,0.226 v 0.629 c 0,0.151 0.067,0.226 0.203,0.226 z m -0.493,1.233 1.107,1.081 c 0.188,0 0.283,-0.087 0.283,-0.259 V -10 c 0,-0.175 -0.071,-0.262 -0.211,-0.262 h -8.766 l 1.106,1.081 H 0.984 Z M -6.69,-4.475 H 2.091 L 0.984,-5.556 h -6.481 v -3.625 l -1.106,-1.081 c -0.188,0 -0.282,0.087 -0.282,0.262 v 5.266 c 0,0.172 0.065,0.259 0.195,0.259 m 9.541,5.902 c 0.145,0 0.216,-0.08 0.216,-0.241 V 0.511 C 3.067,0.35 2.996,0.269 2.851,0.269 H -7.441 c -0.143,0 -0.215,0.081 -0.215,0.242 v 0.675 c 0,0.161 0.072,0.241 0.215,0.241 z m 0.616,-13.039 c 0.145,0 0.218,-0.08 0.218,-0.241 v -0.674 c 0,-0.161 -0.073,-0.242 -0.218,-0.242 H -8.289 c -0.145,0 -0.216,0.081 -0.216,0.242 v 0.674 c 0,0.161 0.071,0.241 0.216,0.241 z m -0.154,9.645 c 0.146,0 0.217,-0.081 0.217,-0.242 v -0.674 c 0,-0.162 -0.071,-0.242 -0.217,-0.242 H -8.289 c -0.145,0 -0.216,0.08 -0.216,0.242 v 0.674 c 0,0.161 0.071,0.242 0.216,0.242 z M -9.044,2.43 c 0.352,0 0.578,-0.048 0.677,-0.144 C -8.056,1.985 -7.9,1.731 -7.9,1.526 L -9.919,-3.489 C -9.934,-3.568 -9.94,-3.64 -9.94,-3.706 c 0,-0.052 0.027,-0.104 0.083,-0.156 0.71,-0.747 1.245,-1.491 1.607,-2.228 0.291,-0.706 0.438,-1.386 0.438,-2.04 0,-1.163 -0.184,-2.018 -0.551,-2.563 -0.432,-0.69 -1.128,-1.035 -2.092,-1.035 -0.61,0 -0.931,0.13 -0.959,0.388 -0.042,0.299 -0.127,0.643 -0.254,1.031 0,0.198 0.049,0.299 0.149,0.299 l 1.064,-0.137 c 0.466,0 0.758,0.192 0.876,0.577 0.109,0.369 0.163,0.91 0.163,1.622 0,0.549 -0.167,1.141 -0.503,1.779 -0.349,0.74 -0.887,1.435 -1.614,2.082 -0.084,0.061 -0.126,0.111 -0.126,0.151 0,0.053 0.029,0.154 0.089,0.299 z m 0,0 V 1.272 h -3.662 c -0.182,0 -0.274,0.077 -0.274,0.228 v 0.703 c 0,0.151 0.092,0.227 0.274,0.227 z m -4.345,0 h 0.798 c 0.203,0 0.304,-0.077 0.304,-0.235 V -14.63 c 0,-0.174 -0.101,-0.261 -0.304,-0.261 h -0.798 c -0.191,0 -0.286,0.087 -0.286,0.261 V 2.195 c 0,0.158 0.095,0.235 0.286,0.235"
       style="fill:#ffffff;fill-opacity:1;fill-rule:nonzero;stroke:none"
       transform="matrix(1.3333333,0,0,-1.3333333,98.692667,133.19987)"
       clip-path="url(#clipPath88)" />
    <path
       id="path89"
       d="M 0,0 H 0.325 C 0.472,0 0.569,-0.024 0.614,-0.072 0.82,-0.285 0.922,-0.447 0.922,-0.561 l -1.2,-2.789 c -0.025,-0.056 -0.056,-0.083 -0.093,-0.083 -0.628,0.179 -0.94,0.329 -0.94,0.452 z M -0.232,-4.821 C -0.079,-4.821 0,-4.908 0,-5.079 v -0.72 c 0,-0.172 -0.079,-0.257 -0.232,-0.257 h -2.161 c -0.153,0 -0.231,0.085 -0.231,0.257 v 0.72 c 0,0.171 0.078,0.258 0.231,0.258 z M -0.11,5.777 C 0.336,5.262 0.559,4.968 0.559,4.897 -0.624,3.143 -1.363,2.015 -1.662,1.51 -1.712,1.403 -1.761,1.35 -1.812,1.35 c -0.096,0 -0.198,0.042 -0.307,0.127 -0.216,0.181 -0.44,0.374 -0.669,0.579 -0.096,0.036 -0.144,0.103 -0.144,0.199 z m -3.131,-6.356 h 1.235 v -9.798 c 0,-0.154 -0.09,-0.231 -0.27,-0.231 H -2.99 c -0.167,0 -0.251,0.077 -0.251,0.231 z m 2.734,6.559 c 0.183,0 0.317,-0.066 0.397,-0.198 l -0.2,-0.883 h -4.102 c -0.146,0 -0.217,0.072 -0.217,0.216 v 0.649 c 0,0.143 0.071,0.216 0.217,0.216 z M -2.882,2.631 c 0.638,-0.306 1.208,-0.645 1.71,-1.015 0.38,-0.251 0.706,-0.511 0.977,-0.78 0.028,-0.028 0.04,-0.05 0.04,-0.069 0,-0.082 -0.283,-0.3 -0.849,-0.652 -0.041,0 -0.081,0.014 -0.123,0.041 -0.448,0.399 -0.929,0.743 -1.443,1.032 -0.313,0.19 -0.644,0.367 -0.997,0.53 -0.447,0.199 -0.936,0.399 -1.465,0.598 -0.041,0.017 -0.06,0.036 -0.06,0.054 0,0.036 0.205,0.284 0.614,0.742 0.073,0.06 0.158,0.089 0.254,0.089 0.419,-0.148 0.867,-0.339 1.342,-0.57 m -1.742,-8.224 c 0.178,0 0.271,-0.073 0.283,-0.217 0.032,-0.665 0.096,-1.273 0.191,-1.822 0.062,-0.449 0.148,-0.825 0.259,-1.132 0.082,-0.281 0.179,-0.504 0.289,-0.672 0.112,-0.179 0.25,-0.313 0.414,-0.402 0.136,-0.09 0.275,-0.147 0.42,-0.173 0.348,-0.038 0.839,-0.057 1.474,-0.057 0.371,0 1.008,0.102 1.91,0.307 0,-0.033 -0.028,-0.113 -0.085,-0.236 -0.126,-0.302 -0.235,-0.622 -0.327,-0.959 -0.034,-0.124 -0.125,-0.185 -0.274,-0.185 -0.168,-0.056 -0.576,-0.085 -1.224,-0.085 -1.024,0 -1.782,0.057 -2.272,0.169 -0.237,0.086 -0.443,0.23 -0.616,0.43 -0.213,0.223 -0.401,0.534 -0.565,0.932 -0.138,0.337 -0.261,0.759 -0.371,1.271 -0.153,0.621 -0.261,1.492 -0.326,2.614 0,0.144 0.075,0.217 0.227,0.217 h 0.279 z M 0.308,0 0,-1.157 h -5.57 c -0.144,0 -0.216,0.08 -0.216,0.241 v 0.674 C -5.786,-0.08 -5.714,0 -5.57,0 Z m -5.709,-2.738 1.659,-0.187 c 0,-0.091 -0.04,-0.158 -0.117,-0.203 -0.166,-0.091 -0.249,-0.193 -0.249,-0.305 -0.014,-1.06 -0.041,-1.869 -0.086,-2.423 -0.033,-0.539 -0.094,-1.085 -0.186,-1.64 -0.088,-0.505 -0.205,-0.987 -0.352,-1.443 -0.136,-0.475 -0.294,-0.874 -0.476,-1.2 -0.234,-0.425 -0.588,-0.89 -1.062,-1.395 -0.081,0 -0.149,0.063 -0.206,0.187 -0.183,0.204 -0.392,0.397 -0.621,0.577 -0.104,0.08 -0.155,0.16 -0.155,0.239 0.103,0.083 0.236,0.208 0.403,0.373 0.183,0.2 0.337,0.398 0.462,0.598 0.167,0.249 0.301,0.515 0.403,0.797 0.133,0.331 0.252,0.704 0.354,1.119 0.093,0.382 0.172,0.797 0.236,1.247 0.061,0.497 0.101,0.986 0.123,1.468 0.03,0.613 -0.013,1.344 -0.13,2.191 m -2.005,-4.235 c 0.184,-0.43 0.492,-0.916 0.923,-1.459 0.052,-0.038 0.078,-0.082 0.078,-0.133 0,-0.041 -0.042,-0.097 -0.126,-0.165 -0.14,-0.178 -0.323,-0.371 -0.548,-0.576 -0.084,-0.096 -0.155,-0.146 -0.212,-0.146 -0.034,0 -0.079,0.027 -0.132,0.077 -0.307,0.436 -0.577,0.92 -0.806,1.457 -0.229,0.575 -0.45,1.252 -0.66,2.032 l 0.904,0.525 c 0.21,-0.696 0.403,-1.233 0.579,-1.612 m 1.031,5.7 c 0.135,0 0.202,-0.075 0.202,-0.225 v -0.629 c 0,-0.15 -0.067,-0.227 -0.202,-0.227 h -3.607 c -0.135,0 -0.202,0.077 -0.202,0.227 v 0.629 c 0,0.15 0.067,0.225 0.202,0.225 z m -0.507,7.022 c 0.06,0 0.129,-0.052 0.203,-0.157 0.492,-0.638 0.737,-0.979 0.737,-1.023 0,-0.118 -0.046,-0.177 -0.139,-0.177 L -6.502,4.464 H -6.553 C -6.823,4.283 -7.121,4.1 -7.45,3.919 -7.855,3.737 -8.29,3.574 -8.753,3.429 -9.126,3.283 -9.61,3.156 -10.208,3.048 l -0.362,1.048 c 0.598,0.122 1.133,0.275 1.608,0.459 0.449,0.153 0.867,0.352 1.252,0.596 0.281,0.154 0.541,0.353 0.778,0.598 z m -2.721,0.559 c 0,-0.075 -0.071,-0.171 -0.216,-0.29 V 2.321 c 0,-0.157 0.078,-0.236 0.235,-0.236 h 2.16 c 0.257,0 0.499,0.423 0.725,1.271 L -5.633,2.688 C -6.019,1.539 -6.508,0.965 -7.098,0.965 h -2.939 c -0.627,0 -0.94,0.264 -0.94,0.795 v 4.619 c 0,0.145 0.053,0.218 0.158,0.218 0.811,-0.075 1.216,-0.172 1.216,-0.289 m 3.306,-11.207 c 0.134,0 0.202,-0.076 0.202,-0.226 v -0.629 c 0,-0.15 -0.068,-0.225 -0.202,-0.225 h -4.765 c -0.136,0 -0.203,0.075 -0.203,0.225 v 0.629 c 0,0.15 0.067,0.226 0.203,0.226 z m -3.754,5.401 1.053,-0.434 c 0.166,-0.072 0.249,-0.157 0.249,-0.254 0,-0.137 -0.054,-0.232 -0.164,-0.286 -0.155,0 -0.249,-0.095 -0.28,-0.287 -0.421,-1.445 -0.834,-2.564 -1.24,-3.354 -0.093,-0.164 -0.163,-0.247 -0.209,-0.247 -0.071,0 -0.166,0.036 -0.285,0.105 -0.238,0.117 -0.457,0.222 -0.658,0.315 -0.096,0.035 -0.143,0.064 -0.143,0.087 0,0.026 0.025,0.078 0.073,0.158 0.373,0.705 0.657,1.32 0.851,1.842 0.275,0.681 0.477,1.361 0.608,2.041 0.048,0.209 0.097,0.314 0.145,0.314 m 2.441,-2.14 c 0.149,-0.046 0.222,-0.107 0.222,-0.185 0,-0.123 -0.046,-0.208 -0.138,-0.253 -0.198,-0.055 -0.296,-0.178 -0.296,-0.369 0,-2.06 -0.101,-3.572 -0.303,-4.532 -0.271,-1.053 -0.678,-1.967 -1.219,-2.738 -0.406,-0.551 -0.913,-1.055 -1.523,-1.511 h -0.202 c -0.362,0.111 -0.709,0.232 -1.036,0.363 -0.057,0.033 -0.086,0.099 -0.086,0.198 0.735,0.433 1.321,0.914 1.763,1.445 0.44,0.532 0.77,1.197 0.99,1.994 0.294,0.848 0.441,2.285 0.441,4.311 0,0.227 -0.019,0.641 -0.054,1.241 0,0.112 0.073,0.17 0.223,0.17 z m -5.183,-5.692 c 0.144,0 0.217,-0.08 0.217,-0.241 v -0.675 c 0,-0.16 -0.073,-0.24 -0.217,-0.24 h -2.344 c -0.144,0 -0.217,0.08 -0.217,0.24 v 0.675 c 0,0.161 0.073,0.241 0.217,0.241 z m 0.506,6.558 c 0.166,0 0.25,-0.076 0.25,-0.231 v -8.14 c 0,-0.153 -0.089,-0.231 -0.272,-0.231 h -0.708 c -0.169,0 -0.253,0.078 -0.253,0.231 v 7.214 h -1.867 c -0.144,0 -0.217,0.077 -0.217,0.232 v 0.694 c 0,0.155 0.073,0.231 0.217,0.231 z m -3.43,0 h 0.708 c 0.181,0 0.273,-0.078 0.273,-0.234 v -9.988 c 0,-0.155 -0.092,-0.232 -0.273,-0.232 h -0.708 c -0.169,0 -0.254,0.077 -0.254,0.232 v 9.988 c 0,0.156 0.085,0.234 0.254,0.234 m 3.695,5.941 c 0.145,0 0.217,-0.08 0.217,-0.241 V 4.253 c 0,-0.161 -0.072,-0.241 -0.217,-0.241 h -4.967 c -0.144,0 -0.216,0.08 -0.216,0.241 v 0.675 c 0,0.161 0.072,0.241 0.216,0.241 z m -3.023,-0.502 1.176,-0.443 c -0.228,-1.266 -0.461,-2.412 -0.699,-3.44 -0.284,-1.055 -0.584,-1.991 -0.904,-2.808 -0.311,-0.87 -0.677,-1.675 -1.097,-2.412 -0.146,0 -0.255,0.035 -0.327,0.106 -0.276,0.128 -0.554,0.263 -0.829,0.404 -0.117,0 -0.175,0.036 -0.175,0.107 0.567,0.938 1.022,1.863 1.365,2.776 0.344,0.856 0.608,1.701 0.794,2.534 0.186,0.616 0.394,1.635 0.627,3.056 0,0.08 0.023,0.12 0.069,0.12"
       style="fill:#ffffff;fill-opacity:1;fill-rule:nonzero;stroke:none"
       transform="matrix(1.3333333,0,0,-1.3333333,130.60933,137.98373)"
       clip-path="url(#clipPath90)" />
    <path
       id="path91"
       d="m 0,0 c 0.49,-0.499 0.909,-0.95 1.257,-1.356 0,-0.025 -0.033,-0.081 -0.1,-0.169 -0.385,-0.529 -0.59,-0.794 -0.617,-0.794 -0.532,0.637 -1.103,1.229 -1.712,1.775 -0.501,0.424 -0.916,0.727 -1.244,0.91 0,0.063 0.209,0.333 0.624,0.807 0.065,0.09 0.117,0.135 0.156,0.135 C -0.973,0.841 -0.426,0.405 0,0 m -3.797,13.498 h 1.311 V 7.957 c 0,-0.163 -0.095,-0.246 -0.286,-0.246 H -3.53 c -0.178,0 -0.267,0.083 -0.267,0.246 z m -3.086,0 h 1.311 V 7.957 c 0,-0.163 -0.095,-0.246 -0.286,-0.246 h -0.759 c -0.177,0 -0.266,0.083 -0.266,0.246 z M -5.224,2.851 h 1.389 v -4.367 c 0,-0.998 -0.797,-1.497 -2.386,-1.497 h -0.854 c -0.097,0 -0.147,0.116 -0.147,0.344 -0.028,0.298 -0.152,0.642 -0.375,1.032 0,0.081 0.023,0.121 0.066,0.121 0.411,-0.101 0.812,-0.151 1.199,-0.151 0.739,0 1.108,0.239 1.108,0.716 z m 4.875,2.97 c 0.145,0 0.217,-0.08 0.217,-0.241 V 4.905 c 0,-0.16 -0.072,-0.241 -0.217,-0.241 h -8.438 c -0.145,0 -0.217,0.081 -0.217,0.241 V 5.58 c 0,0.161 0.072,0.241 0.217,0.241 z m -0.4,4.398 1.106,1.157 c 0.189,0 0.282,-0.086 0.282,-0.26 V 7.393 C 0.639,7.221 0.56,7.132 0.401,7.132 h -9.972 l 1.107,1.158 h 7.715 z m -8.882,1.157 H 0.357 L -0.749,10.219 H -8.464 V 8.29 L -9.571,7.132 c -0.188,0 -0.282,0.089 -0.282,0.261 v 3.723 c 0,0.174 0.074,0.26 0.222,0.26 m 10.594,2.701 c 0.144,0 0.218,-0.08 0.218,-0.242 V 13.16 c 0,-0.161 -0.074,-0.241 -0.218,-0.241 H -9.945 c -0.144,0 -0.217,0.08 -0.217,0.241 v 0.675 c 0,0.162 0.073,0.242 0.217,0.242 z M 0.886,3.43 C 1.03,3.43 1.103,3.349 1.103,3.188 V 2.514 C 1.103,2.353 1.03,2.272 0.886,2.272 H -10.1 c -0.143,0 -0.215,0.081 -0.215,0.242 v 0.674 c 0,0.161 0.072,0.242 0.215,0.242 z M -7.982,1.308 -6.922,0.517 C -6.818,0.413 -6.768,0.33 -6.768,0.266 -6.768,0.221 -6.812,0.19 -6.904,0.175 -7.025,0.161 -7.123,0.123 -7.198,0.06 c -0.334,-0.41 -0.689,-0.789 -1.068,-1.138 -0.439,-0.38 -1.007,-0.768 -1.703,-1.163 -0.152,0 -0.253,0.051 -0.303,0.154 -0.266,0.206 -0.487,0.392 -0.664,0.56 -0.102,0.038 -0.151,0.084 -0.151,0.134 0,0.031 0.022,0.06 0.068,0.09 0.331,0.12 0.603,0.256 0.816,0.406 0.453,0.3 0.846,0.623 1.178,0.967 0.286,0.3 0.605,0.676 0.952,1.126 0.031,0.074 0.061,0.112 0.091,0.112 m -3.515,6.097 c 0.273,-0.72 0.73,-1.532 1.372,-2.443 0.078,-0.064 0.117,-0.137 0.117,-0.222 0,-0.041 -0.042,-0.096 -0.126,-0.165 -0.14,-0.179 -0.324,-0.371 -0.548,-0.577 -0.086,-0.096 -0.156,-0.144 -0.212,-0.144 -0.052,0 -0.117,0.041 -0.195,0.123 -0.458,0.697 -0.856,1.478 -1.196,2.339 -0.34,0.923 -0.667,2.011 -0.979,3.263 l 0.903,0.525 c 0.314,-1.165 0.601,-2.063 0.864,-2.699 m -0.567,7.144 c 0,-0.174 -0.069,-0.268 -0.206,-0.281 -0.137,-0.015 -0.207,-0.146 -0.207,-0.392 V -2.829 c 0,-0.173 -0.101,-0.261 -0.303,-0.261 h -0.804 c -0.187,0 -0.281,0.088 -0.281,0.261 v 17.4 c 0,0.159 0.095,0.239 0.286,0.239 1.009,0 1.515,-0.087 1.515,-0.261 m 1.362,-3.829 c 0.155,0 0.231,-0.085 0.231,-0.257 v -0.72 c 0,-0.172 -0.076,-0.258 -0.231,-0.258 h -5.478 c -0.154,0 -0.231,0.086 -0.231,0.258 v 0.72 c 0,0.172 0.077,0.257 0.231,0.257 z m -3.24,-0.616 1.176,-0.444 C -13,8.394 -13.24,7.248 -13.485,6.219 -13.776,5.164 -14.087,4.229 -14.415,3.412 -14.734,2.542 -15.111,1.738 -15.543,1 c -0.145,0 -0.254,0.035 -0.328,0.105 -0.275,0.129 -0.551,0.263 -0.829,0.406 -0.115,0 -0.175,0.033 -0.175,0.106 0.582,0.938 1.05,1.863 1.402,2.775 0.352,0.858 0.624,1.703 0.816,2.534 0.19,0.616 0.405,1.636 0.643,3.057 0,0.08 0.023,0.121 0.072,0.121"
       style="fill:#ffffff;fill-opacity:1;fill-rule:nonzero;stroke:none"
       transform="matrix(1.3333333,0,0,-1.3333333,156.75907,149.14)"
       clip-path="url(#clipPath92)" />
    <path
       id="path93"
       d="m 0,0 1.193,-0.491 c 0.188,-0.083 0.284,-0.179 0.284,-0.287 0,-0.056 -0.05,-0.094 -0.148,-0.116 -0.139,0 -0.224,-0.039 -0.25,-0.117 -0.376,-0.585 -0.746,-1.038 -1.109,-1.359 -0.083,-0.066 -0.146,-0.099 -0.187,-0.099 -0.081,0 -0.189,0.04 -0.324,0.119 -0.268,0.132 -0.517,0.251 -0.745,0.356 -0.108,0.04 -0.161,0.073 -0.161,0.099 0,0.012 0.02,0.035 0.062,0.069 0.322,0.307 0.566,0.574 0.735,0.802 0.237,0.296 0.413,0.592 0.525,0.887 C -0.084,-0.045 -0.042,0 0,0 M -2.733,2.286 C -2.733,2.112 -2.801,2.019 -2.938,2.004 -3.076,1.99 -3.145,1.859 -3.145,1.613 V 0.801 c 0,-0.173 -0.101,-0.261 -0.304,-0.261 h -0.802 c -0.189,0 -0.282,0.088 -0.282,0.261 v 1.507 c 0,0.159 0.094,0.238 0.284,0.238 1.011,0 1.516,-0.087 1.516,-0.26 m -1.878,-12.469 h 1.389 v -5.141 c 0,-0.173 -0.101,-0.26 -0.304,-0.26 h -0.803 c -0.188,0 -0.282,0.087 -0.282,0.26 z m -2.286,9.162 c 0.23,-0.262 0.426,-0.54 0.589,-0.837 0,-0.058 -0.456,-0.21 -1.367,-0.456 -0.065,0.178 -0.202,0.397 -0.409,0.653 -0.235,0.292 -0.541,0.587 -0.917,0.89 0,0.096 0.384,0.328 1.15,0.694 0.392,-0.344 0.71,-0.659 0.954,-0.944 M 1.73,-7.136 c 0.145,0 0.216,-0.081 0.216,-0.241 v -0.675 c 0,-0.161 -0.071,-0.241 -0.216,-0.241 H -9.254 c -0.145,0 -0.217,0.08 -0.217,0.241 v 0.675 c 0,0.16 0.072,0.241 0.217,0.241 z m -0.477,1.312 1.107,1.156 c 0.187,0 0.281,-0.086 0.281,-0.26 v -5.575 c 0,-0.172 -0.097,-0.26 -0.292,-0.26 H -9.883 l 1.106,1.158 H 1.253 Z M -9.893,-4.668 H 2.36 L 1.253,-5.824 h -10.03 v -3.781 l -1.106,-1.158 c -0.189,0 -0.283,0.088 -0.283,0.26 v 5.575 c 0,0.174 0.09,0.26 0.273,0.26 M 3.196,1.119 c 0.145,0 0.217,-0.08 0.217,-0.241 V 0.202 c 0,-0.16 -0.072,-0.24 -0.217,-0.24 H -10.72 c -0.145,0 -0.218,0.08 -0.218,0.24 v 0.676 c 0,0.161 0.073,0.241 0.218,0.241 z m 1.311,-3.394 c 0.145,0 0.217,-0.081 0.217,-0.242 v -0.674 c 0,-0.162 -0.072,-0.242 -0.217,-0.242 h -16.538 c -0.145,0 -0.218,0.08 -0.218,0.242 v 0.674 c 0,0.161 0.073,0.242 0.218,0.242 z m 0,-9.877 c 0.145,0 0.217,-0.08 0.217,-0.24 v -0.675 c 0,-0.161 -0.072,-0.241 -0.217,-0.241 h -16.616 c -0.144,0 -0.217,0.08 -0.217,0.241 v 0.675 c 0,0.16 0.073,0.24 0.217,0.24 z"
       style="fill:#ffffff;fill-opacity:1;fill-rule:nonzero;stroke:none"
       transform="matrix(1.3333333,0,0,-1.3333333,179.03587,132.48053)"
       clip-path="url(#clipPath94)" />
    <path
       id="path95"
       d="m 0,0 h -9.354 c -0.026,0.978 0.417,2.007 1.331,3.086 0.553,0.656 1.427,1.46 2.623,2.411 0.926,0.746 1.742,1.512 2.448,2.296 0.76,0.849 1.14,1.69 1.14,2.526 0,0.707 -0.257,1.298 -0.772,1.774 -0.502,0.464 -1.132,0.695 -1.89,0.695 -0.541,0 -1.036,-0.128 -1.485,-0.386 -0.849,-0.463 -1.28,-1.292 -1.292,-2.487 l -1.774,0.212 c 0.063,0.656 0.192,1.196 0.385,1.62 0.72,1.646 2.121,2.468 4.204,2.468 1.467,0 2.603,-0.437 3.415,-1.311 0.655,-0.734 0.984,-1.607 0.984,-2.623 0,-0.785 -0.214,-1.53 -0.639,-2.238 C -1.214,7.168 -2.153,6.153 -3.491,4.997 L -4.917,3.801 C -5.857,3.054 -6.531,2.346 -6.943,1.679 H 0 Z"
       style="fill:#ffffff;fill-opacity:1;fill-rule:nonzero;stroke:none"
       transform="matrix(1.3333333,0,0,-1.3333333,201.56187,150.81707)"
       clip-path="url(#clipPath96)" />
    <path
       id="path97"
       d="m 156.475,286.887 h -1.986 v 1.987 h 1.986 z"
       style="fill:#ffffff;fill-opacity:1;fill-rule:nonzero;stroke:none"
       transform="matrix(1.3333333,0,0,-1.3333333,0,533.33333)"
       clip-path="url(#clipPath98)" />
    <path
       id="path99"
       d="M 0,0 H -1.836 V 11.201 C -2.279,10.797 -2.858,10.394 -3.576,9.99 -4.293,9.586 -4.937,9.284 -5.509,9.082 v 1.699 c 1.027,0.463 1.925,1.022 2.693,1.68 0.769,0.658 1.313,1.295 1.632,1.914 H 0 Z"
       style="fill:#ffffff;fill-opacity:1;fill-rule:nonzero;stroke:none"
       transform="matrix(1.3333333,0,0,-1.3333333,220.83267,151.1256)"
       clip-path="url(#clipPath100)" />
    <path
       id="path101"
       d="M 0,0 C 0.242,-0.253 0.448,-0.482 0.62,-0.687 0.62,-0.699 0.604,-0.726 0.572,-0.768 0.388,-1.021 0.29,-1.147 0.277,-1.147 c -0.262,0.322 -0.543,0.622 -0.844,0.898 -0.246,0.216 -0.451,0.37 -0.613,0.462 0,0.03 0.099,0.159 0.298,0.386 0.031,0.043 0.056,0.064 0.074,0.064 C -0.48,0.426 -0.211,0.205 0,0 m -1.33,5.711 h 0.627 V 1.373 c 0,-0.079 -0.046,-0.118 -0.137,-0.118 h -0.363 c -0.085,0 -0.127,0.039 -0.127,0.118 z M -2.404,0.573 c 0.315,-0.422 0.603,-0.872 0.865,-1.35 0,-0.091 -0.02,-0.14 -0.059,-0.146 -0.217,-0.15 -0.392,-0.224 -0.524,-0.224 -0.28,0.594 -0.547,1.087 -0.8,1.48 0,0.065 0.14,0.164 0.421,0.295 0.052,0 0.084,-0.018 0.097,-0.055 m -0.528,5.138 h 0.627 V 1.373 c 0,-0.079 -0.046,-0.118 -0.137,-0.118 h -0.362 c -0.085,0 -0.128,0.039 -0.128,0.118 z m -1.601,0 h 0.627 V 1.373 c 0,-0.079 -0.046,-0.118 -0.137,-0.118 h -0.363 c -0.085,0 -0.127,0.039 -0.127,0.118 z m 0.388,-5.138 c 0.251,-0.411 0.482,-0.849 0.691,-1.316 0,-0.09 -0.02,-0.139 -0.059,-0.146 -0.217,-0.149 -0.392,-0.224 -0.523,-0.224 -0.22,0.581 -0.429,1.063 -0.627,1.446 0,0.065 0.141,0.164 0.421,0.295 0.052,0 0.084,-0.018 0.097,-0.055 M 0.028,5.99 c 0.07,0 0.104,-0.038 0.104,-0.116 V 5.549 C 0.132,5.472 0.098,5.433 0.028,5.433 h -5.745 c -0.07,0 -0.104,0.039 -0.104,0.116 v 0.325 c 0,0.078 0.034,0.116 0.104,0.116 z M -6.1,5.711 h 0.627 V 1.373 c 0,-0.079 -0.046,-0.118 -0.137,-0.118 H -5.973 C -6.058,1.255 -6.1,1.294 -6.1,1.373 Z M 0.167,1.534 c 0.07,0 0.104,-0.039 0.104,-0.117 V 1.092 C 0.271,1.015 0.237,0.977 0.167,0.977 h -7.172 c -0.07,0 -0.104,0.038 -0.104,0.115 v 0.325 c 0,0.078 0.034,0.117 0.104,0.117 z M -5.583,7 C -5.098,6.76 -4.855,6.618 -4.855,6.575 -4.855,6.52 -4.877,6.492 -4.92,6.492 -5.02,6.485 -5.085,6.455 -5.116,6.399 -5.416,5.83 -5.712,5.399 -6.005,5.106 -6.17,4.931 -6.451,4.68 -6.849,4.354 c -0.061,0 -0.119,0.028 -0.174,0.083 -0.085,0.069 -0.174,0.143 -0.266,0.224 -0.043,0.03 -0.064,0.065 -0.064,0.102 0.207,0.172 0.413,0.351 0.62,0.54 0.267,0.245 0.501,0.519 0.702,0.822 0.17,0.269 0.304,0.535 0.401,0.797 C -5.618,6.974 -5.602,7 -5.583,7 M 0.411,3.797 c 0.069,0 0.105,-0.039 0.105,-0.116 V 3.356 C 0.516,3.278 0.48,3.24 0.411,3.24 h -7.729 c -0.07,0 -0.105,0.038 -0.105,0.116 v 0.325 c 0,0.077 0.035,0.116 0.105,0.116 z M -6.073,0.663 -5.564,0.284 c 0.049,-0.05 0.073,-0.09 0.073,-0.12 0,-0.024 -0.02,-0.04 -0.06,-0.048 C -5.605,0.108 -5.65,0.088 -5.684,0.056 -5.832,-0.158 -5.991,-0.357 -6.16,-0.54 c -0.196,-0.198 -0.45,-0.4 -0.761,-0.607 -0.073,0 -0.121,0.024 -0.146,0.074 -0.127,0.098 -0.233,0.188 -0.318,0.268 -0.049,0.018 -0.073,0.04 -0.073,0.065 0,0.015 0.01,0.031 0.031,0.046 0.148,0.063 0.269,0.133 0.364,0.211 0.202,0.156 0.377,0.324 0.525,0.503 0.128,0.156 0.269,0.351 0.424,0.584 0.014,0.04 0.027,0.059 0.041,0.059"
       style="fill:#ffffff;fill-opacity:1;fill-rule:nonzero;stroke:none"
       transform="matrix(1.3333333,0,0,-1.3333333,55.386133,63.9492)"
       clip-path="url(#clipPath102)" />
    <path
       id="path103"
       d="m 0,0 0.506,-0.209 c 0.08,-0.035 0.12,-0.075 0.12,-0.122 0,-0.031 -0.019,-0.053 -0.057,-0.065 -0.055,0 -0.089,-0.022 -0.1,-0.066 C 0.32,-0.794 0.174,-1.05 0.031,-1.232 -0.002,-1.27 -0.027,-1.288 -0.043,-1.288 c -0.035,0 -0.081,0.017 -0.138,0.05 -0.114,0.056 -0.219,0.107 -0.316,0.152 -0.046,0.016 -0.069,0.03 -0.069,0.042 0,0.006 0.008,0.018 0.025,0.037 0.125,0.17 0.221,0.317 0.287,0.443 0.093,0.163 0.161,0.326 0.205,0.488 C -0.033,-0.025 -0.017,0 0,0 m -1.367,-4.387 h 0.627 v -2.25 c 0,-0.078 -0.046,-0.117 -0.137,-0.117 h -0.362 c -0.085,0 -0.128,0.039 -0.128,0.117 z m 0.813,5.662 C -0.554,1.197 -0.585,1.154 -0.647,1.148 -0.709,1.142 -0.74,1.083 -0.74,0.972 V 0.5 c 0,-0.078 -0.046,-0.117 -0.137,-0.117 h -0.362 c -0.085,0 -0.128,0.039 -0.128,0.117 v 0.785 c 0,0.071 0.043,0.108 0.129,0.108 0.456,0 0.684,-0.039 0.684,-0.118 m -1.317,-1.824 c 0.088,-0.152 0.163,-0.314 0.226,-0.487 0,-0.023 -0.183,-0.084 -0.548,-0.183 -0.025,0.109 -0.077,0.242 -0.156,0.399 -0.089,0.177 -0.206,0.357 -0.349,0.541 0,0.039 0.153,0.132 0.461,0.279 0.151,-0.2 0.273,-0.383 0.366,-0.549 m 2.537,-2.515 c 0.061,0 0.091,-0.034 0.091,-0.102 V -3.45 c 0,-0.068 -0.03,-0.101 -0.091,-0.101 h -3.369 c -0.061,0 -0.091,0.033 -0.091,0.101 v 0.284 c 0,0.068 0.03,0.102 0.091,0.102 z m -0.222,0.557 0.499,0.487 c 0.085,0 0.128,-0.039 0.128,-0.117 v -2.376 c 0,-0.078 -0.032,-0.118 -0.095,-0.118 H -2.98 l 0.499,0.488 H 0.444 Z M -3.02,-2.02 H 0.943 L 0.444,-2.507 H -2.481 V -4.143 L -2.98,-4.631 c -0.085,0 -0.127,0.04 -0.127,0.118 v 2.376 c 0,0.078 0.029,0.117 0.087,0.117 m 4.306,2.664 c 0.066,0 0.098,-0.036 0.098,-0.109 V 0.23 C 1.384,0.158 1.352,0.122 1.286,0.122 h -4.644 c -0.065,0 -0.098,0.036 -0.098,0.108 v 0.305 c 0,0.073 0.033,0.109 0.098,0.109 z M 1.564,-5.24 c 0.066,0 0.099,-0.036 0.099,-0.109 v -0.304 c 0,-0.073 -0.033,-0.109 -0.099,-0.109 h -5.305 c -0.065,0 -0.098,0.036 -0.098,0.109 v 0.304 c 0,0.073 0.033,0.109 0.098,0.109 z m -0.069,4.352 c 0.065,0 0.098,-0.036 0.098,-0.109 V -1.301 C 1.593,-1.374 1.56,-1.41 1.495,-1.41 h -5.236 c -0.065,0 -0.098,0.036 -0.098,0.109 v 0.304 c 0,0.073 0.033,0.109 0.098,0.109 z m -5.578,1.985 c 0.16,0 0.262,-0.022 0.307,-0.065 0.14,-0.136 0.211,-0.25 0.211,-0.343 l -0.912,-2.263 c -0.006,-0.036 -0.01,-0.069 -0.01,-0.098 0,-0.024 0.013,-0.047 0.038,-0.071 0.32,-0.337 0.562,-0.673 0.725,-1.005 0.132,-0.319 0.198,-0.626 0.198,-0.921 0,-0.525 -0.083,-0.911 -0.248,-1.157 -0.195,-0.311 -0.51,-0.466 -0.944,-0.466 -0.276,0 -0.42,0.058 -0.433,0.174 -0.019,0.136 -0.057,0.291 -0.115,0.466 0,0.09 0.022,0.135 0.067,0.135 l 0.481,-0.062 c 0.21,0 0.342,0.087 0.395,0.26 0.049,0.167 0.073,0.411 0.073,0.733 0,0.247 -0.075,0.514 -0.227,0.802 -0.157,0.334 -0.4,0.647 -0.728,0.94 -0.038,0.027 -0.057,0.05 -0.057,0.069 0,0.023 0.013,0.068 0.04,0.134 z m 0,0 V 0.574 h -1.651 c -0.083,0 -0.124,0.035 -0.124,0.103 v 0.317 c 0,0.068 0.041,0.103 0.124,0.103 z m -1.959,0 h 0.359 c 0.092,0 0.138,-0.036 0.138,-0.106 v -7.593 c 0,-0.079 -0.046,-0.118 -0.138,-0.118 h -0.359 c -0.086,0 -0.129,0.039 -0.129,0.118 v 7.593 c 0,0.07 0.043,0.106 0.129,0.106"
       style="fill:#ffffff;fill-opacity:1;fill-rule:nonzero;stroke:none"
       transform="matrix(1.3333333,0,0,-1.3333333,66.2748,56.565733)"
       clip-path="url(#clipPath104)" />
    <path
       id="path105"
       d="m 0,0 h 0.146 c 0.067,0 0.11,-0.011 0.131,-0.033 0.093,-0.095 0.139,-0.169 0.139,-0.22 l -0.541,-1.259 c -0.012,-0.025 -0.026,-0.037 -0.043,-0.037 -0.283,0.08 -0.424,0.148 -0.424,0.204 z M -0.104,-2.176 C -0.035,-2.176 0,-2.215 0,-2.292 V -2.617 C 0,-2.694 -0.035,-2.733 -0.104,-2.733 H -1.08 c -0.069,0 -0.104,0.039 -0.104,0.116 v 0.325 c 0,0.077 0.035,0.116 0.104,0.116 z M -0.05,2.607 C 0.152,2.375 0.252,2.242 0.252,2.21 -0.281,1.418 -0.615,0.909 -0.75,0.681 -0.772,0.633 -0.795,0.609 -0.817,0.609 c -0.044,0 -0.09,0.019 -0.139,0.058 -0.098,0.081 -0.199,0.168 -0.302,0.261 -0.043,0.016 -0.065,0.046 -0.065,0.09 z m -1.412,-2.868 h 0.557 v -4.422 c 0,-0.069 -0.041,-0.105 -0.122,-0.105 h -0.322 c -0.076,0 -0.113,0.036 -0.113,0.105 z m 1.233,2.959 c 0.083,0 0.143,-0.029 0.179,-0.089 L -0.14,2.211 h -1.851 c -0.066,0 -0.098,0.033 -0.098,0.098 v 0.292 c 0,0.065 0.032,0.097 0.098,0.097 z M -1.3,1.187 c 0.287,-0.138 0.545,-0.291 0.771,-0.458 0.172,-0.113 0.319,-0.23 0.441,-0.352 0.012,-0.012 0.018,-0.023 0.018,-0.031 0,-0.037 -0.128,-0.135 -0.383,-0.294 -0.019,0 -0.037,0.007 -0.055,0.019 -0.202,0.179 -0.42,0.335 -0.652,0.466 -0.141,0.085 -0.291,0.165 -0.45,0.238 -0.202,0.09 -0.422,0.18 -0.661,0.27 -0.018,0.008 -0.027,0.017 -0.027,0.025 0,0.016 0.092,0.128 0.277,0.334 0.033,0.027 0.071,0.041 0.115,0.041 0.189,-0.067 0.391,-0.153 0.606,-0.258 m -0.786,-3.711 c 0.08,0 0.122,-0.033 0.127,-0.098 0.015,-0.3 0.043,-0.574 0.086,-0.822 0.028,-0.202 0.067,-0.372 0.117,-0.511 0.037,-0.127 0.081,-0.228 0.131,-0.303 0.05,-0.081 0.112,-0.141 0.186,-0.182 0.062,-0.04 0.125,-0.066 0.189,-0.078 0.158,-0.017 0.38,-0.025 0.666,-0.025 0.167,0 0.455,0.046 0.862,0.138 C 0.278,-4.42 0.266,-4.456 0.24,-4.511 0.183,-4.648 0.134,-4.792 0.092,-4.944 0.077,-5 0.036,-5.028 -0.032,-5.028 c -0.075,-0.025 -0.26,-0.038 -0.552,-0.038 -0.462,0 -0.804,0.025 -1.025,0.076 -0.107,0.039 -0.2,0.104 -0.278,0.194 -0.096,0.101 -0.181,0.241 -0.255,0.421 -0.063,0.152 -0.118,0.343 -0.168,0.573 -0.069,0.281 -0.118,0.674 -0.147,1.18 0,0.065 0.034,0.098 0.103,0.098 h 0.125 z M 0.139,0 0,-0.522 h -2.514 c -0.065,0 -0.097,0.036 -0.097,0.108 v 0.306 c 0,0.072 0.032,0.108 0.097,0.108 z m -2.577,-1.236 0.749,-0.084 c 0,-0.041 -0.018,-0.071 -0.052,-0.092 -0.076,-0.041 -0.113,-0.087 -0.113,-0.137 -0.006,-0.479 -0.019,-0.844 -0.039,-1.094 -0.014,-0.243 -0.042,-0.49 -0.084,-0.74 -0.04,-0.228 -0.093,-0.445 -0.158,-0.651 -0.062,-0.214 -0.134,-0.394 -0.215,-0.542 -0.107,-0.191 -0.266,-0.401 -0.479,-0.629 -0.037,0 -0.067,0.028 -0.093,0.084 -0.084,0.093 -0.177,0.179 -0.281,0.261 -0.047,0.036 -0.07,0.072 -0.07,0.108 0.046,0.037 0.107,0.093 0.182,0.168 0.083,0.09 0.153,0.18 0.209,0.27 0.075,0.112 0.135,0.232 0.182,0.359 0.06,0.15 0.113,0.319 0.159,0.506 0.042,0.172 0.078,0.359 0.107,0.562 0.027,0.224 0.045,0.445 0.055,0.662 0.014,0.278 -0.006,0.607 -0.059,0.989 m -0.904,-1.91 c 0.083,-0.194 0.222,-0.415 0.416,-0.659 0.024,-0.017 0.036,-0.037 0.036,-0.06 0,-0.019 -0.019,-0.044 -0.057,-0.074 -0.064,-0.081 -0.146,-0.168 -0.248,-0.261 -0.038,-0.043 -0.07,-0.065 -0.095,-0.065 -0.016,0 -0.036,0.012 -0.06,0.035 -0.139,0.196 -0.26,0.415 -0.363,0.657 -0.104,0.26 -0.204,0.565 -0.299,0.917 l 0.408,0.236 c 0.095,-0.313 0.183,-0.556 0.262,-0.726 m 0.465,2.572 c 0.061,0 0.091,-0.034 0.091,-0.102 V -0.96 c 0,-0.068 -0.03,-0.102 -0.091,-0.102 h -1.627 c -0.061,0 -0.092,0.034 -0.092,0.102 v 0.284 c 0,0.068 0.031,0.102 0.092,0.102 z m -0.228,3.168 c 0.026,0 0.057,-0.023 0.091,-0.07 0.222,-0.288 0.333,-0.442 0.333,-0.462 0,-0.053 -0.021,-0.08 -0.063,-0.08 l -0.19,0.033 H -2.957 C -3.079,1.933 -3.214,1.851 -3.362,1.769 -3.545,1.687 -3.741,1.613 -3.95,1.547 -4.118,1.482 -4.337,1.424 -4.607,1.375 L -4.77,1.849 c 0.27,0.055 0.512,0.124 0.726,0.207 0.203,0.069 0.391,0.158 0.565,0.269 0.126,0.069 0.244,0.158 0.351,0.269 z m -1.228,0.253 c 0,-0.034 -0.033,-0.077 -0.098,-0.131 V 1.047 c 0,-0.07 0.035,-0.106 0.106,-0.106 h 0.975 c 0.116,0 0.225,0.191 0.327,0.574 L -2.542,1.213 C -2.716,0.694 -2.937,0.436 -3.203,0.436 h -1.326 c -0.283,0 -0.425,0.119 -0.425,0.358 v 2.085 c 0,0.065 0.024,0.098 0.072,0.098 0.365,-0.033 0.549,-0.077 0.549,-0.13 m 1.491,-5.058 c 0.061,0 0.092,-0.034 0.092,-0.102 v -0.284 c 0,-0.067 -0.031,-0.101 -0.092,-0.101 h -2.15 c -0.061,0 -0.091,0.034 -0.091,0.101 v 0.284 c 0,0.068 0.03,0.102 0.091,0.102 z m -1.694,2.438 0.475,-0.196 c 0.075,-0.033 0.113,-0.071 0.113,-0.114 0,-0.063 -0.025,-0.105 -0.074,-0.13 -0.07,0 -0.113,-0.043 -0.126,-0.129 -0.191,-0.653 -0.377,-1.158 -0.56,-1.514 -0.042,-0.074 -0.074,-0.111 -0.095,-0.111 -0.032,0 -0.075,0.016 -0.128,0.047 -0.108,0.053 -0.206,0.1 -0.297,0.142 -0.043,0.016 -0.064,0.029 -0.064,0.04 0,0.011 0.01,0.035 0.033,0.07 0.168,0.319 0.296,0.596 0.384,0.832 0.124,0.307 0.215,0.614 0.273,0.921 0.022,0.094 0.044,0.142 0.066,0.142 m 1.101,-0.966 c 0.067,-0.021 0.101,-0.049 0.101,-0.084 0,-0.055 -0.021,-0.093 -0.062,-0.114 -0.089,-0.025 -0.134,-0.081 -0.134,-0.166 0,-0.93 -0.046,-1.612 -0.137,-2.045 -0.122,-0.476 -0.306,-0.888 -0.55,-1.236 C -4.4,-4.633 -4.629,-4.86 -4.904,-5.066 h -0.092 c -0.163,0.05 -0.319,0.105 -0.467,0.164 -0.026,0.015 -0.038,0.045 -0.038,0.089 0.331,0.195 0.596,0.413 0.795,0.652 0.199,0.24 0.348,0.54 0.447,0.9 0.133,0.383 0.199,1.031 0.199,1.946 0,0.102 -0.008,0.289 -0.024,0.56 0,0.05 0.033,0.076 0.1,0.076 z m -2.338,-2.569 c 0.065,0 0.098,-0.036 0.098,-0.109 v -0.304 c 0,-0.072 -0.033,-0.109 -0.098,-0.109 h -1.058 c -0.065,0 -0.098,0.037 -0.098,0.109 v 0.304 c 0,0.073 0.033,0.109 0.098,0.109 z m 0.228,2.96 c 0.075,0 0.113,-0.035 0.113,-0.105 v -3.673 c 0,-0.069 -0.041,-0.104 -0.123,-0.104 h -0.319 c -0.077,0 -0.115,0.035 -0.115,0.104 v 3.256 h -0.842 c -0.065,0 -0.098,0.035 -0.098,0.104 v 0.313 c 0,0.07 0.033,0.105 0.098,0.105 z m -1.548,0 h 0.32 c 0.082,0 0.123,-0.035 0.123,-0.106 v -4.507 c 0,-0.07 -0.041,-0.105 -0.123,-0.105 h -0.32 c -0.076,0 -0.115,0.035 -0.115,0.105 v 4.507 c 0,0.071 0.039,0.106 0.115,0.106 m 1.668,2.681 c 0.065,0 0.098,-0.037 0.098,-0.109 V 1.919 c 0,-0.072 -0.033,-0.108 -0.098,-0.108 h -2.242 c -0.065,0 -0.098,0.036 -0.098,0.108 v 0.305 c 0,0.072 0.033,0.109 0.098,0.109 z M -6.79,2.106 -6.259,1.906 C -6.362,1.335 -6.467,0.818 -6.574,0.354 c -0.128,-0.476 -0.264,-0.898 -0.408,-1.268 -0.141,-0.392 -0.306,-0.755 -0.495,-1.088 -0.066,0 -0.115,0.016 -0.148,0.048 -0.125,0.058 -0.25,0.119 -0.374,0.183 -0.053,0 -0.079,0.016 -0.079,0.048 0.256,0.423 0.461,0.841 0.616,1.252 0.155,0.388 0.275,0.768 0.358,1.144 0.084,0.278 0.178,0.738 0.283,1.379 0,0.036 0.01,0.054 0.031,0.054"
       style="fill:#ffffff;fill-opacity:1;fill-rule:nonzero;stroke:none"
       transform="matrix(1.3333333,0,0,-1.3333333,80.677733,58.724667)"
       clip-path="url(#clipPath106)" />
    <path
       id="path107"
       d="m 0,0 c 0.221,-0.225 0.41,-0.429 0.567,-0.612 0,-0.011 -0.015,-0.036 -0.045,-0.076 -0.174,-0.239 -0.267,-0.358 -0.278,-0.358 -0.241,0.287 -0.498,0.554 -0.773,0.8 -0.226,0.192 -0.413,0.329 -0.561,0.411 0,0.029 0.094,0.15 0.281,0.364 0.03,0.041 0.053,0.061 0.071,0.061 C -0.439,0.379 -0.192,0.183 0,0 m -1.713,6.091 h 0.591 v -2.5 c 0,-0.074 -0.043,-0.111 -0.129,-0.111 h -0.342 c -0.08,0 -0.12,0.037 -0.12,0.111 z m -1.393,0 h 0.592 v -2.5 c 0,-0.074 -0.043,-0.111 -0.13,-0.111 h -0.342 c -0.08,0 -0.12,0.037 -0.12,0.111 z m 0.749,-4.804 h 0.626 v -1.971 c 0,-0.45 -0.359,-0.675 -1.077,-0.675 h -0.385 c -0.044,0 -0.066,0.051 -0.066,0.154 -0.012,0.135 -0.069,0.289 -0.169,0.466 0,0.037 0.01,0.055 0.029,0.055 0.186,-0.045 0.367,-0.068 0.542,-0.068 0.333,0 0.5,0.107 0.5,0.323 z m 2.2,1.34 c 0.065,0 0.097,-0.036 0.097,-0.109 V 2.214 c 0,-0.073 -0.032,-0.109 -0.097,-0.109 h -3.808 c -0.066,0 -0.098,0.036 -0.098,0.109 v 0.304 c 0,0.073 0.032,0.109 0.098,0.109 z m -0.181,1.985 0.5,0.522 c 0.084,0 0.127,-0.039 0.127,-0.118 V 3.336 C 0.289,3.258 0.253,3.219 0.181,3.219 h -4.5 l 0.499,0.522 h 3.482 z m -4.008,0.522 h 4.508 l -0.5,-0.522 H -3.82 V 3.741 L -4.319,3.219 c -0.085,0 -0.127,0.039 -0.127,0.117 v 1.68 c 0,0.079 0.033,0.118 0.1,0.118 M 0.435,6.353 C 0.5,6.353 0.533,6.316 0.533,6.244 V 5.939 C 0.533,5.867 0.5,5.83 0.435,5.83 h -4.923 c -0.065,0 -0.098,0.037 -0.098,0.109 v 0.305 c 0,0.072 0.033,0.109 0.098,0.109 z M 0.4,1.548 c 0.065,0 0.098,-0.037 0.098,-0.109 V 1.134 C 0.498,1.062 0.465,1.025 0.4,1.025 h -4.958 c -0.065,0 -0.097,0.037 -0.097,0.109 v 0.305 c 0,0.072 0.032,0.109 0.097,0.109 z M -3.602,0.59 -3.124,0.233 c 0.047,-0.046 0.07,-0.084 0.07,-0.113 0,-0.02 -0.02,-0.034 -0.061,-0.041 -0.055,-0.007 -0.099,-0.024 -0.134,-0.051 -0.15,-0.185 -0.31,-0.357 -0.481,-0.515 -0.198,-0.171 -0.455,-0.346 -0.769,-0.525 -0.068,0 -0.114,0.024 -0.137,0.07 -0.119,0.093 -0.219,0.177 -0.299,0.253 -0.046,0.017 -0.068,0.038 -0.068,0.061 0,0.013 0.01,0.026 0.03,0.04 0.15,0.054 0.273,0.115 0.369,0.183 0.204,0.135 0.381,0.281 0.531,0.437 0.13,0.135 0.273,0.304 0.43,0.508 0.014,0.033 0.027,0.05 0.041,0.05 m -1.586,2.752 c 0.123,-0.324 0.33,-0.692 0.619,-1.103 0.035,-0.029 0.053,-0.062 0.053,-0.1 0,-0.019 -0.019,-0.043 -0.057,-0.075 -0.064,-0.08 -0.146,-0.167 -0.248,-0.26 -0.038,-0.043 -0.07,-0.065 -0.095,-0.065 -0.023,0 -0.053,0.019 -0.088,0.056 -0.207,0.314 -0.387,0.666 -0.54,1.055 -0.153,0.417 -0.301,0.908 -0.442,1.473 l 0.408,0.237 c 0.141,-0.526 0.271,-0.932 0.39,-1.218 M -5.444,6.566 C -5.444,6.487 -5.475,6.445 -5.537,6.438 -5.599,6.432 -5.63,6.373 -5.63,6.262 v -7.539 c 0,-0.078 -0.046,-0.118 -0.138,-0.118 H -6.13 c -0.084,0 -0.127,0.04 -0.127,0.118 v 7.853 c 0,0.071 0.043,0.107 0.129,0.107 0.456,0 0.684,-0.039 0.684,-0.117 M -4.83,4.838 c 0.07,0 0.105,-0.039 0.105,-0.116 V 4.397 c 0,-0.078 -0.035,-0.116 -0.105,-0.116 h -2.471 c -0.07,0 -0.105,0.038 -0.105,0.116 v 0.325 c 0,0.077 0.035,0.116 0.105,0.116 z M -6.292,4.56 -5.761,4.359 C -5.867,3.788 -5.975,3.271 -6.085,2.807 -6.217,2.331 -6.357,1.908 -6.505,1.54 -6.649,1.147 -6.819,0.784 -7.014,0.451 c -0.066,0 -0.115,0.016 -0.148,0.048 -0.125,0.058 -0.249,0.118 -0.374,0.183 -0.052,0 -0.079,0.015 -0.079,0.047 0.262,0.424 0.473,0.841 0.633,1.253 0.159,0.387 0.281,0.768 0.367,1.143 0.086,0.279 0.183,0.739 0.291,1.38 0,0.036 0.011,0.055 0.032,0.055"
       style="fill:#ffffff;fill-opacity:1;fill-rule:nonzero;stroke:none"
       transform="matrix(1.3333333,0,0,-1.3333333,92.478533,63.759067)"
       clip-path="url(#clipPath108)" />
    <path
       id="path109"
       d="m 0,0 0.538,-0.222 c 0.085,-0.037 0.128,-0.08 0.128,-0.13 0,-0.024 -0.022,-0.042 -0.066,-0.052 -0.063,0 -0.101,-0.017 -0.114,-0.052 -0.169,-0.264 -0.336,-0.469 -0.5,-0.613 -0.037,-0.03 -0.066,-0.045 -0.085,-0.045 -0.036,0 -0.085,0.018 -0.145,0.053 -0.121,0.06 -0.234,0.114 -0.337,0.161 -0.048,0.018 -0.072,0.033 -0.072,0.045 0,0.005 0.009,0.015 0.028,0.031 0.145,0.138 0.255,0.259 0.332,0.362 0.106,0.133 0.186,0.267 0.236,0.4 C -0.038,-0.021 -0.019,0 0,0 M -1.233,1.032 C -1.233,0.953 -1.264,0.911 -1.327,0.904 -1.389,0.898 -1.419,0.839 -1.419,0.728 V 0.361 c 0,-0.078 -0.046,-0.117 -0.138,-0.117 h -0.362 c -0.085,0 -0.127,0.039 -0.127,0.117 v 0.68 c 0,0.072 0.043,0.108 0.129,0.108 0.456,0 0.684,-0.039 0.684,-0.117 m -0.848,-5.628 h 0.627 v -2.32 c 0,-0.078 -0.046,-0.117 -0.137,-0.117 h -0.363 c -0.085,0 -0.127,0.039 -0.127,0.117 z m -1.032,4.135 c 0.104,-0.118 0.193,-0.244 0.266,-0.378 0,-0.026 -0.206,-0.094 -0.617,-0.205 -0.029,0.08 -0.091,0.178 -0.185,0.294 -0.105,0.132 -0.243,0.266 -0.413,0.402 0,0.043 0.173,0.148 0.519,0.313 0.177,-0.155 0.32,-0.298 0.43,-0.426 m 3.894,-2.76 c 0.065,0 0.097,-0.036 0.097,-0.109 v -0.304 c 0,-0.073 -0.032,-0.109 -0.097,-0.109 h -4.957 c -0.066,0 -0.098,0.036 -0.098,0.109 v 0.304 c 0,0.073 0.032,0.109 0.098,0.109 z m -0.216,0.593 0.499,0.522 c 0.085,0 0.128,-0.04 0.128,-0.118 V -4.74 c 0,-0.078 -0.044,-0.117 -0.132,-0.117 h -5.52 l 0.499,0.522 h 4.526 z m -5.03,0.522 H 1.064 L 0.565,-2.628 H -3.961 V -4.335 L -4.46,-4.857 c -0.085,0 -0.128,0.039 -0.128,0.117 v 2.516 c 0,0.078 0.041,0.118 0.123,0.118 M 1.442,0.505 C 1.507,0.505 1.54,0.469 1.54,0.396 V 0.091 c 0,-0.072 -0.033,-0.109 -0.098,-0.109 h -6.28 c -0.065,0 -0.098,0.037 -0.098,0.109 v 0.305 c 0,0.073 0.033,0.109 0.098,0.109 z m 0.592,-1.532 c 0.065,0 0.098,-0.036 0.098,-0.109 V -1.44 c 0,-0.073 -0.033,-0.109 -0.098,-0.109 H -5.43 c -0.065,0 -0.098,0.036 -0.098,0.109 v 0.304 c 0,0.073 0.033,0.109 0.098,0.109 z m 0,-4.457 c 0.065,0 0.098,-0.036 0.098,-0.109 v -0.304 c 0,-0.073 -0.033,-0.109 -0.098,-0.109 h -7.499 c -0.065,0 -0.097,0.036 -0.097,0.109 v 0.304 c 0,0.073 0.032,0.109 0.097,0.109 z"
       style="fill:#ffffff;fill-opacity:1;fill-rule:nonzero;stroke:none"
       transform="matrix(1.3333333,0,0,-1.3333333,102.53187,56.240933)"
       clip-path="url(#clipPath110)" />
    <path
       id="path111"
       d="m 0,0 h -4.222 c -0.011,0.441 0.189,0.905 0.601,1.393 0.249,0.295 0.644,0.658 1.183,1.087 0.418,0.337 0.787,0.683 1.106,1.036 0.342,0.383 0.514,0.764 0.514,1.141 0,0.319 -0.117,0.586 -0.349,0.801 -0.226,0.209 -0.51,0.313 -0.853,0.313 -0.243,0 -0.467,-0.058 -0.67,-0.174 C -3.073,5.388 -3.267,5.014 -3.273,4.474 L -4.074,4.57 c 0.029,0.296 0.087,0.539 0.174,0.731 0.325,0.742 0.958,1.114 1.898,1.114 0.661,0 1.175,-0.197 1.541,-0.592 0.295,-0.331 0.443,-0.725 0.443,-1.184 0,-0.353 -0.095,-0.69 -0.287,-1.009 C -0.548,3.235 -0.972,2.777 -1.576,2.254 L -2.22,1.715 C -2.644,1.378 -2.948,1.059 -3.134,0.757 H 0 Z"
       style="fill:#ffffff;fill-opacity:1;fill-rule:nonzero;stroke:none"
       transform="matrix(1.3333333,0,0,-1.3333333,112.69787,64.5156)"
       clip-path="url(#clipPath112)" />
    <path
       id="path113"
       d="m 86.917,351.613 h -0.896 v 0.896 h 0.896 z"
       style="fill:#ffffff;fill-opacity:1;fill-rule:nonzero;stroke:none"
       transform="matrix(1.3333333,0,0,-1.3333333,0,533.33333)"
       clip-path="url(#clipPath114)" />
    <path
       id="path115"
       d="M 0,0 H -0.791 V 5.041 C -0.981,4.859 -1.231,4.677 -1.541,4.496 -1.85,4.314 -2.127,4.178 -2.373,4.087 v 0.765 c 0.442,0.208 0.829,0.46 1.16,0.755 0.331,0.296 0.566,0.583 0.703,0.862 l 0.51,0 z"
       style="fill:#ffffff;fill-opacity:1;fill-rule:nonzero;stroke:none"
       transform="matrix(1.3333333,0,0,-1.3333333,121.61453,64.565733)"
       clip-path="url(#clipPath116)" />
  </g>
</svg>
