<?xml version="1.0" encoding="UTF-8" standalone="no"?>
<!DOCTYPE svg PUBLIC "-//W3C//DTD SVG 1.1//EN" "http://www.w3.org/Graphics/SVG/1.1/DTD/svg11.dtd">
<svg width="100%" height="100%" viewBox="0 0 287 100" version="1.1" xmlns="http://www.w3.org/2000/svg" xmlns:xlink="http://www.w3.org/1999/xlink" xml:space="preserve" xmlns:serif="http://www.serif.com/" style="fill-rule:evenodd;clip-rule:evenodd;stroke-linejoin:round;stroke-miterlimit:2;">
    <g transform="matrix(1.4688,0,0,1.03615,6.32708,0)">
        <rect x="-4.308" y="0" width="195.262" height="96.511" style="fill:rgb(74,133,4);"/>
    </g>
    <g transform="matrix(1.47077,0,0,1.47077,-45.4402,-121.024)">
        <g transform="matrix(1,0,0,1,30.8955,148.786)">
            <path d="M0,-64.349C0,-65.797 0.547,-66.521 1.646,-66.521L193.353,-66.521C194.45,-66.521 195,-65.797 195,-64.349L195,0.052C195,1.466 194.45,2.172 193.353,2.172L1.646,2.172C0.547,2.172 0,1.466 0,0.052L0,-64.349Z" style="fill:rgb(74,133,4);"/>
        </g>
        <g transform="matrix(1,0,0,1,176.847,126.542)">
            <path d="M0,-23.468L-1.976,-24.085C-1.948,-25.347 -1.577,-26.266 -0.864,-26.842C-0.398,-27.226 0.206,-27.473 0.946,-27.583L38.309,-32.274C41.436,-32.686 43.026,-31.41 43.083,-28.447L43.821,4.883C43.877,7.845 42.299,9.218 39.09,8.997L3.168,6.159C3.168,5.582 3.181,5.033 3.209,4.512L36.375,7.145C39.227,7.338 40.626,6.104 40.57,3.443L39.997,-26.431C39.913,-29.118 38.486,-30.258 35.717,-29.845L2.55,-25.65C1.152,-25.512 0.301,-24.785 0,-23.468" style="fill:rgb(39,70,2);"/>
        </g>
        <g transform="matrix(1,0,0,1,213.794,136.827)">
            <path d="M0,-41.711C2.138,-41.82 3.441,-41.025 3.908,-39.324C4.129,-38.776 4.25,-38.131 4.278,-37.391L4.977,-4.966L4.977,-4.019C5.034,-1.222 3.564,0.109 0.576,-0.029C0.494,-0.056 0.396,-0.069 0.288,-0.069L-35.141,-2.745L-35.141,-5.872L-2.551,-3.361C-2.497,-3.361 -2.428,-3.347 -2.346,-3.32C-1.167,-3.265 -0.249,-3.458 0.411,-3.897C0.849,-4.5 1.056,-5.337 1.028,-6.406L0.453,-35.456C0.424,-36.169 0.301,-36.76 0.083,-37.227C0.026,-37.28 -0.043,-37.336 -0.123,-37.391C-0.701,-37.775 -1.482,-37.94 -2.469,-37.884C-2.662,-37.884 -2.854,-37.87 -3.044,-37.843L-35.964,-33.77C-37.144,-33.632 -37.926,-33.07 -38.31,-32.083L-41.108,-33.852C-40.97,-34.784 -40.601,-35.47 -39.997,-35.91C-39.503,-36.567 -38.735,-36.965 -37.692,-37.102L-0.701,-41.67C-0.454,-41.697 -0.221,-41.711 0,-41.711" style="fill:rgb(255,204,0);"/>
        </g>
        <g transform="matrix(1,0,0,1,208.979,109.558)">
            <path d="M0,13.457C0.63,13.457 1.165,13.704 1.604,14.197C2.097,14.663 2.346,15.185 2.346,15.76C2.346,16.392 2.097,16.94 1.604,17.406C1.165,17.899 0.63,18.147 0,18.147C-0.658,18.147 -1.207,17.899 -1.646,17.406C-2.112,16.94 -2.346,16.392 -2.346,15.76C-2.346,15.185 -2.112,14.663 -1.646,14.197C-1.207,13.704 -0.658,13.457 0,13.457M0.329,3.952C0.933,3.952 1.467,4.198 1.935,4.692C2.4,5.131 2.634,5.665 2.634,6.296C2.634,6.9 2.4,7.449 1.935,7.942C1.467,8.41 0.933,8.642 0.329,8.642C-0.357,8.642 -0.919,8.41 -1.359,7.942C-1.824,7.449 -2.058,6.9 -2.058,6.296C-2.058,5.665 -1.824,5.131 -1.359,4.692C-0.919,4.198 -0.357,3.952 0.329,3.952M1.935,-3.949C2.4,-3.483 2.634,-2.948 2.634,-2.344C2.634,-1.714 2.4,-1.165 1.935,-0.699C1.467,-0.232 0.933,0 0.329,0C-0.357,0 -0.919,-0.232 -1.359,-0.699C-1.824,-1.165 -2.058,-1.714 -2.058,-2.344C-2.058,-2.948 -1.824,-3.483 -1.359,-3.949C-0.919,-4.443 -0.357,-4.69 0.329,-4.69C0.933,-4.69 1.467,-4.443 1.935,-3.949M-15.143,15.76C-15.143,16.392 -15.39,16.94 -15.883,17.406C-16.323,17.899 -16.843,18.147 -17.447,18.147C-18.133,18.147 -18.695,17.899 -19.134,17.406C-19.6,16.94 -19.833,16.392 -19.833,15.76C-19.833,15.185 -19.6,14.663 -19.134,14.197C-18.695,13.704 -18.133,13.457 -17.447,13.457C-16.843,13.457 -16.323,13.704 -15.883,14.197C-15.39,14.663 -15.143,15.185 -15.143,15.76M-7.53,14.197C-7.063,14.663 -6.832,15.185 -6.832,15.76C-6.832,16.392 -7.063,16.94 -7.53,17.406C-7.998,17.899 -8.532,18.147 -9.134,18.147C-9.822,18.147 -10.382,17.899 -10.822,17.406C-11.289,16.94 -11.521,16.392 -11.521,15.76C-11.521,15.185 -11.289,14.663 -10.822,14.197C-10.382,13.704 -9.822,13.457 -9.134,13.457C-8.532,13.457 -7.998,13.704 -7.53,14.197M-25.8,13.457C-25.169,13.457 -24.634,13.704 -24.195,14.197C-23.702,14.663 -23.455,15.185 -23.455,15.76C-23.455,16.392 -23.702,16.94 -24.195,17.406C-24.634,17.899 -25.169,18.147 -25.8,18.147C-26.458,18.147 -27.007,17.899 -27.445,17.406C-27.912,16.94 -28.146,16.392 -28.146,15.76C-28.146,15.185 -27.912,14.663 -27.445,14.197C-27.007,13.704 -26.458,13.457 -25.8,13.457M-27.159,4.692C-26.691,4.198 -26.13,3.952 -25.471,3.952C-24.867,3.952 -24.333,4.198 -23.866,4.692C-23.4,5.131 -23.166,5.665 -23.166,6.296C-23.166,6.9 -23.4,7.449 -23.866,7.942C-24.333,8.41 -24.867,8.642 -25.471,8.642C-26.13,8.642 -26.691,8.41 -27.159,7.942C-27.624,7.449 -27.858,6.9 -27.858,6.296C-27.858,5.665 -27.624,5.131 -27.159,4.692M-25.471,-4.69C-24.867,-4.69 -24.333,-4.443 -23.866,-3.949C-23.4,-3.483 -23.166,-2.948 -23.166,-2.344C-23.166,-1.714 -23.4,-1.165 -23.866,-0.699C-24.333,-0.232 -24.867,0 -25.471,0C-26.13,0 -26.691,-0.232 -27.159,-0.699C-27.624,-1.165 -27.858,-1.714 -27.858,-2.344C-27.858,-2.948 -27.624,-3.483 -27.159,-3.949C-26.691,-4.443 -26.13,-4.69 -25.471,-4.69M-8.807,3.952C-8.204,3.952 -7.682,4.198 -7.243,4.692C-6.749,5.131 -6.5,5.665 -6.5,6.296C-6.5,6.9 -6.749,7.449 -7.243,7.942C-7.682,8.41 -8.204,8.642 -8.807,8.642C-9.491,8.642 -10.054,8.41 -10.493,7.942C-10.96,7.449 -11.192,6.9 -11.192,6.296C-11.192,5.665 -10.96,5.131 -10.493,4.692C-10.054,4.198 -9.491,3.952 -8.807,3.952M-17.159,3.952C-16.528,3.952 -15.994,4.198 -15.554,4.692C-15.06,5.131 -14.814,5.665 -14.814,6.296C-14.814,6.9 -15.06,7.449 -15.554,7.942C-15.994,8.41 -16.528,8.642 -17.159,8.642C-17.818,8.642 -18.365,8.41 -18.805,7.942C-19.271,7.449 -19.505,6.9 -19.505,6.296C-19.505,5.665 -19.271,5.131 -18.805,4.692C-18.365,4.198 -17.818,3.952 -17.159,3.952M-17.159,-4.69C-16.528,-4.69 -15.994,-4.443 -15.554,-3.949C-15.06,-3.483 -14.814,-2.948 -14.814,-2.344C-14.814,-1.714 -15.06,-1.165 -15.554,-0.699C-15.994,-0.232 -16.528,0 -17.159,0C-17.818,0 -18.365,-0.232 -18.805,-0.699C-19.271,-1.165 -19.505,-1.714 -19.505,-2.344C-19.505,-2.948 -19.271,-3.483 -18.805,-3.949C-18.365,-4.443 -17.818,-4.69 -17.159,-4.69M-7.243,-3.949C-6.749,-3.483 -6.5,-2.948 -6.5,-2.344C-6.5,-1.714 -6.749,-1.165 -7.243,-0.699C-7.682,-0.232 -8.204,0 -8.807,0C-9.491,0 -10.054,-0.232 -10.493,-0.699C-10.96,-1.165 -11.192,-1.714 -11.192,-2.344C-11.192,-2.948 -10.96,-3.483 -10.493,-3.949C-10.054,-4.443 -9.491,-4.69 -8.807,-4.69C-8.204,-4.69 -7.682,-4.443 -7.243,-3.949" style="fill:rgb(255,204,0);"/>
        </g>
        <g transform="matrix(1,0,0,1,197.417,109.313)">
            <path d="M0,-5.844C0.822,-6.721 1.837,-7.16 3.045,-7.16C4.168,-7.16 5.129,-6.721 5.925,-5.844C6.801,-4.993 7.241,-4.032 7.241,-2.964C7.241,-1.838 6.801,-0.838 5.925,0.04C5.129,0.891 4.168,1.316 3.045,1.316C1.837,1.316 0.822,0.891 0,0.04C-0.824,-0.838 -1.235,-1.838 -1.235,-2.964C-1.235,-4.032 -0.824,-4.993 0,-5.844" style="fill:rgb(39,70,2);"/>
        </g>
        <g transform="matrix(1,0,0,1,187.13,116.678)">
            <path d="M0,-0.082C0,1.042 -0.439,2.044 -1.316,2.921C-2.113,3.772 -3.059,4.197 -4.156,4.197C-5.39,4.197 -6.405,3.772 -7.202,2.921C-8.051,2.044 -8.476,1.042 -8.476,-0.082C-8.476,-1.179 -8.051,-2.139 -7.202,-2.962C-6.405,-3.841 -5.39,-4.279 -4.156,-4.279C-3.059,-4.279 -2.113,-3.841 -1.316,-2.962C-0.439,-2.139 0,-1.179 0,-0.082" style="fill:rgb(39,70,2);"/>
        </g>
        <g transform="matrix(1,0,0,1,197.171,128.857)">
            <path d="M0,-5.883C0.794,-6.762 1.809,-7.2 3.045,-7.2C4.142,-7.2 5.087,-6.762 5.882,-5.883C6.789,-5.034 7.241,-4.074 7.241,-3.003C7.241,-1.852 6.789,-0.836 5.882,0.042C5.087,0.892 4.142,1.317 3.045,1.317C1.809,1.317 0.794,0.892 0,0.042C-0.853,-0.836 -1.277,-1.852 -1.277,-3.003C-1.277,-4.074 -0.853,-5.034 0,-5.883" style="fill:rgb(39,70,2);"/>
        </g>
        <g transform="matrix(1,0,0,1,54.0166,133.588)">
            <path d="M0,-11.438C1.619,-8.75 2.428,-5.842 2.428,-2.715C2.428,-1.316 2.25,-0.026 1.892,1.153C1.508,2.306 0.918,3.265 0.123,4.034L-1.4,4.034C-1.29,3.705 -1.193,3.389 -1.111,3.087C-1.084,2.731 -1.07,2.361 -1.07,1.977C-1.07,0.413 -1.537,-1 -2.469,-2.262C-3.429,-3.524 -4.526,-4.155 -5.761,-4.155C-7.05,-4.155 -8.174,-3.524 -9.135,-2.262C-10.068,-1 -10.534,0.413 -10.534,1.977C-10.534,2.662 -10.411,3.348 -10.164,4.034L-11.687,4.034C-12.482,3.265 -13.059,2.306 -13.415,1.153C-13.826,-0.026 -14.031,-1.329 -14.031,-2.756C-14.031,-5.856 -13.223,-8.763 -11.604,-11.479C-9.986,-14.141 -8.038,-15.472 -5.761,-15.472C-3.539,-15.472 -1.619,-14.126 0,-11.438M-6.708,-11.232C-6.954,-11.095 -7.202,-10.903 -7.449,-10.657C-7.695,-10.382 -7.874,-10.08 -7.983,-9.751C-8.121,-9.449 -8.188,-9.133 -8.188,-8.805C-8.188,-8.118 -7.956,-7.475 -7.49,-6.871C-7.023,-6.349 -6.488,-6.088 -5.884,-6.088C-5.637,-6.088 -5.405,-6.131 -5.185,-6.212C-4.965,-6.349 -4.664,-6.61 -4.279,-6.994C-3.896,-7.405 -3.704,-7.954 -3.704,-8.64C-3.704,-9.353 -3.937,-9.985 -4.403,-10.533C-4.842,-11.082 -5.363,-11.355 -5.967,-11.355C-6.214,-11.355 -6.46,-11.314 -6.708,-11.232" style="fill:rgb(255,204,0);"/>
        </g>
        <g transform="matrix(1,0,0,1,74.2637,126.62)">
            <path d="M0,8.284C-1.29,8.284 -2.327,7.843 -3.111,6.96C-3.817,6.153 -4.17,5.185 -4.17,4.055C-4.17,2.942 -3.833,2.013 -3.156,1.267C-2.388,0.424 -1.336,0 0,0L4.667,0L4.667,1.441L0,1.441C-0.829,1.441 -1.502,1.713 -2.016,2.259C-2.469,2.742 -2.711,3.342 -2.742,4.055C-2.765,4.809 -2.549,5.446 -2.097,5.969C-1.589,6.552 -0.891,6.844 0,6.844L4.667,6.844L4.667,8.284L0,8.284Z" style="fill:white;fill-rule:nonzero;"/>
        </g>
        <g transform="matrix(1,0,0,1,84.2993,126.62)">
            <path d="M0,8.284C-1.291,8.284 -2.328,7.843 -3.111,6.96C-3.817,6.153 -4.17,5.185 -4.17,4.055C-4.17,2.942 -3.833,2.013 -3.157,1.267C-2.389,0.424 -1.336,0 0,0L4.667,0L4.667,1.441L0,1.441C-0.829,1.441 -1.502,1.713 -2.016,2.259C-2.469,2.742 -2.711,3.342 -2.742,4.055C-2.765,4.809 -2.55,5.446 -2.097,5.969C-1.59,6.552 -0.892,6.844 0,6.844L4.667,6.844L4.667,8.284L0,8.284Z" style="fill:white;fill-rule:nonzero;"/>
        </g>
        <g transform="matrix(1,0,0,1,0,-138.476)">
            <path d="M97.134,269.9L92.399,269.9L92.399,268.46L97.134,268.46L97.134,269.9ZM91.788,271.94L97.502,271.94L97.502,273.38L90.348,273.38L90.348,265.096L97.502,265.096L97.502,266.537L91.788,266.537L91.788,271.94Z" style="fill:white;fill-rule:nonzero;"/>
        </g>
        <g transform="matrix(1,0,0,1,105.142,126.62)">
            <path d="M0,8.284L-6.314,8.284L-6.314,6.844L0,6.844C0.476,6.844 0.855,6.725 1.14,6.487C1.401,6.264 1.532,5.999 1.532,5.692C1.532,5.386 1.405,5.128 1.152,4.92C0.868,4.69 0.483,4.574 0,4.574L-3.917,4.574C-4.731,4.574 -5.376,4.337 -5.854,3.86C-6.283,3.43 -6.499,2.903 -6.499,2.281C-6.499,1.667 -6.283,1.145 -5.854,0.715C-5.376,0.239 -4.731,0 -3.917,0L2.338,0L2.338,1.441L-3.917,1.441C-4.225,1.441 -4.467,1.525 -4.643,1.694C-4.82,1.864 -4.908,2.063 -4.908,2.293C-4.908,2.524 -4.828,2.715 -4.667,2.87C-4.482,3.046 -4.233,3.134 -3.917,3.134L0,3.134C0.883,3.134 1.589,3.403 2.12,3.941C2.596,4.432 2.833,5.027 2.833,5.726C2.833,6.425 2.6,7.013 2.131,7.489C1.609,8.019 0.898,8.284 0,8.284" style="fill:white;fill-rule:nonzero;"/>
        </g>
        <g transform="matrix(1,0,0,1,115.257,126.62)">
            <path d="M0,8.284L-6.314,8.284L-6.314,6.844L0,6.844C0.476,6.844 0.856,6.725 1.141,6.487C1.401,6.264 1.532,5.999 1.532,5.692C1.532,5.386 1.406,5.128 1.152,4.92C0.868,4.69 0.484,4.574 0,4.574L-3.918,4.574C-4.731,4.574 -5.376,4.337 -5.853,3.86C-6.283,3.43 -6.499,2.903 -6.499,2.281C-6.499,1.667 -6.283,1.145 -5.853,0.715C-5.376,0.239 -4.731,0 -3.918,0L2.338,0L2.338,1.441L-3.918,1.441C-4.225,1.441 -4.466,1.525 -4.643,1.694C-4.82,1.864 -4.908,2.063 -4.908,2.293C-4.908,2.524 -4.828,2.715 -4.667,2.87C-4.481,3.046 -4.232,3.134 -3.918,3.134L0,3.134C0.883,3.134 1.589,3.403 2.12,3.941C2.596,4.432 2.834,5.027 2.834,5.726C2.834,6.425 2.6,7.013 2.132,7.489C1.609,8.019 0.898,8.284 0,8.284" style="fill:white;fill-rule:nonzero;"/>
        </g>
        <g transform="matrix(1,0,0,1,0,-138.476)">
            <rect x="119.565" y="265.096" width="1.44" height="8.284" style="fill:white;"/>
        </g>
        <g transform="matrix(1,0,0,1,129.174,128.049)">
            <path d="M0,5.403C0.53,5.403 0.952,5.304 1.267,5.104C1.544,4.927 1.683,4.709 1.683,4.447C1.683,4.186 1.54,3.967 1.256,3.791C0.949,3.583 0.53,3.48 0,3.48L-3.882,3.48L-3.882,2.039L0,2.039C0.53,2.039 0.949,1.932 1.256,1.717C1.54,1.526 1.683,1.291 1.683,1.013C1.683,0.737 1.544,0.503 1.267,0.311C0.952,0.104 0.53,-0 0,-0L-4.724,-0L-4.724,5.403L0,5.403ZM2.201,2.754C2.784,3.207 3.076,3.772 3.076,4.447C3.076,5.092 2.8,5.641 2.247,6.096C1.641,6.594 0.814,6.843 -0.23,6.843L-6.164,6.843L-6.164,-1.44L-0.23,-1.44C0.814,-1.44 1.641,-1.183 2.247,-0.668C2.8,-0.207 3.076,0.357 3.076,1.026C3.076,1.709 2.784,2.285 2.201,2.754" style="fill:white;fill-rule:nonzero;"/>
        </g>
        <g transform="matrix(1,0,0,1,0,-138.476)">
            <rect x="133.99" y="265.096" width="1.44" height="8.284" style="fill:white;"/>
        </g>
        <g transform="matrix(1,0,0,1,137.009,126.62)">
            <path d="M0,8.284L0,0L1.44,0L1.44,6.844L7.143,6.844L7.143,8.284L0,8.284Z" style="fill:white;fill-rule:nonzero;"/>
        </g>
        <g transform="matrix(1,0,0,1,0,-138.476)">
            <rect x="145.466" y="265.096" width="1.44" height="8.284" style="fill:white;"/>
        </g>
        <g transform="matrix(1,0,0,1,153.058,133.464)">
            <path d="M0,-5.403L0,1.44L-1.44,1.44L-1.44,-5.403L-4.712,-5.403L-4.712,-6.843L3.261,-6.843L3.261,-5.403L0,-5.403Z" style="fill:white;fill-rule:nonzero;"/>
        </g>
        <g transform="matrix(1,0,0,1,162.241,126.62)">
            <path d="M0,8.284L-1.44,8.284L-1.44,5.52L-5.658,0L-3.801,0L-0.675,4.091L2.252,0L4.102,0L0,5.541L0,8.284Z" style="fill:white;fill-rule:nonzero;"/>
        </g>
        <g transform="matrix(1,0,0,1,61.2173,133.506)">
            <path d="M0,-11.273C-0.247,-11.273 -0.494,-11.232 -0.741,-11.15C-0.988,-11.012 -1.235,-10.821 -1.481,-10.574C-1.728,-10.299 -1.907,-9.998 -2.017,-9.669C-2.153,-9.367 -2.223,-9.051 -2.223,-8.723C-2.223,-8.036 -1.989,-7.392 -1.522,-6.788C-1.056,-6.267 -0.521,-6.006 0.082,-6.006C0.329,-6.006 0.562,-6.048 0.782,-6.129C1.002,-6.267 1.303,-6.527 1.687,-6.912C2.071,-7.323 2.263,-7.872 2.263,-8.557C2.263,-9.271 2.03,-9.902 1.563,-10.451C1.125,-11 0.604,-11.273 0,-11.273M-8.065,-2.673C-8.065,-5.773 -7.256,-8.681 -5.637,-11.397C-4.019,-14.058 -2.071,-15.389 0.206,-15.389C2.428,-15.389 4.347,-14.044 5.966,-11.356C7.584,-8.668 8.394,-5.759 8.394,-2.632C8.394,-1.233 8.215,0.056 7.859,1.236C7.475,2.388 6.886,3.348 6.089,4.116L4.567,4.116C4.677,3.787 4.772,3.471 4.854,3.169C4.883,2.813 4.897,2.443 4.897,2.059C4.897,0.496 4.431,-0.918 3.498,-2.179C2.537,-3.442 1.44,-4.072 0.206,-4.072C-1.084,-4.072 -2.208,-3.442 -3.168,-2.179C-4.101,-0.918 -4.567,0.496 -4.567,2.059C-4.567,2.744 -4.444,3.43 -4.197,4.116L-5.72,4.116C-6.515,3.348 -7.091,2.388 -7.447,1.236C-7.86,0.056 -8.065,-1.247 -8.065,-2.673" style="fill:rgb(255,204,0);"/>
        </g>
        <g transform="matrix(1,0,0,1,55.9238,99.2024)">
            <path d="M0,12.968C0.536,13.53 0.993,14.035 1.374,14.49C1.374,14.518 1.339,14.578 1.268,14.672C0.86,15.231 0.643,15.511 0.614,15.511C0.034,14.796 -0.589,14.132 -1.256,13.519C-1.802,13.042 -2.255,12.701 -2.614,12.497C-2.614,12.43 -2.395,12.144 -1.954,11.641C-1.885,11.547 -1.83,11.499 -1.789,11.499C-1.063,12.024 -0.467,12.514 0,12.968M-2.946,0.313L-1.558,0.313L-1.558,9.927C-1.558,10.101 -1.659,10.188 -1.862,10.188L-2.665,10.188C-2.854,10.188 -2.946,10.101 -2.946,9.927L-2.946,0.313ZM-5.326,11.699C-4.629,12.635 -3.99,13.632 -3.409,14.691C-3.409,14.892 -3.454,15.001 -3.541,15.015C-4.023,15.345 -4.409,15.511 -4.701,15.511C-5.323,14.193 -5.915,13.1 -6.475,12.232C-6.475,12.087 -6.164,11.868 -5.542,11.576C-5.427,11.576 -5.356,11.617 -5.326,11.699M-6.496,0.313L-5.106,0.313L-5.106,9.927C-5.106,10.101 -5.209,10.188 -5.411,10.188L-6.214,10.188C-6.4,10.188 -6.496,10.101 -6.496,9.927L-6.496,0.313ZM-10.045,0.313L-8.656,0.313L-8.656,9.927C-8.656,10.101 -8.758,10.188 -8.959,10.188L-9.763,10.188C-9.951,10.188 -10.045,10.101 -10.045,9.927L-10.045,0.313ZM-9.184,11.699C-8.626,12.611 -8.117,13.582 -7.652,14.614C-7.652,14.815 -7.697,14.924 -7.785,14.938C-8.267,15.268 -8.653,15.435 -8.943,15.435C-9.43,14.148 -9.894,13.08 -10.332,12.232C-10.332,12.087 -10.022,11.868 -9.4,11.576C-9.285,11.576 -9.213,11.617 -9.184,11.699M0.063,-0.305C0.216,-0.305 0.294,-0.22 0.294,-0.047L0.294,0.671C0.294,0.844 0.216,0.929 0.063,0.929L-12.667,0.929C-12.822,0.929 -12.899,0.844 -12.899,0.671L-12.899,-0.047C-12.899,-0.22 -12.822,-0.305 -12.667,-0.305L0.063,-0.305ZM-13.516,0.313L-12.127,0.313L-12.127,9.927C-12.127,10.101 -12.229,10.188 -12.432,10.188L-13.235,10.188C-13.422,10.188 -13.516,10.101 -13.516,9.927L-13.516,0.313ZM0.371,9.571C0.525,9.571 0.602,9.656 0.602,9.827L0.602,10.547C0.602,10.719 0.525,10.804 0.371,10.804L-15.522,10.804C-15.677,10.804 -15.754,10.719 -15.754,10.547L-15.754,9.827C-15.754,9.656 -15.677,9.571 -15.522,9.571L0.371,9.571ZM-12.371,-2.543C-11.295,-2.011 -10.758,-1.696 -10.758,-1.601C-10.758,-1.478 -10.807,-1.416 -10.903,-1.416C-11.124,-1.402 -11.268,-1.334 -11.337,-1.212C-12,0.049 -12.657,1.004 -13.306,1.652C-13.673,2.041 -14.295,2.598 -15.174,3.321C-15.311,3.321 -15.44,3.259 -15.561,3.136C-15.751,2.985 -15.948,2.819 -16.151,2.641C-16.247,2.572 -16.294,2.497 -16.294,2.415C-15.836,2.034 -15.378,1.635 -14.92,1.218C-14.328,0.676 -13.808,0.068 -13.363,-0.602C-12.987,-1.2 -12.691,-1.788 -12.475,-2.368C-12.447,-2.485 -12.413,-2.543 -12.371,-2.543M0.911,4.555C1.064,4.555 1.143,4.641 1.143,4.813L1.143,5.533C1.143,5.704 1.064,5.79 0.911,5.79L-16.217,5.79C-16.371,5.79 -16.448,5.704 -16.448,5.533L-16.448,4.813C-16.448,4.641 -16.371,4.555 -16.217,4.555L0.911,4.555ZM-13.458,11.499L-12.33,12.339C-12.221,12.448 -12.167,12.538 -12.167,12.606C-12.167,12.659 -12.212,12.694 -12.301,12.711C-12.421,12.73 -12.519,12.773 -12.594,12.844C-12.923,13.319 -13.276,13.76 -13.65,14.164C-14.085,14.605 -14.648,15.053 -15.337,15.511C-15.498,15.511 -15.605,15.456 -15.66,15.346C-15.941,15.128 -16.177,14.93 -16.364,14.753C-16.472,14.712 -16.525,14.664 -16.525,14.609C-16.525,14.574 -16.503,14.54 -16.458,14.506C-16.129,14.367 -15.861,14.212 -15.651,14.039C-15.205,13.694 -14.815,13.321 -14.488,12.924C-14.204,12.579 -13.891,12.147 -13.547,11.629C-13.518,11.543 -13.488,11.499 -13.458,11.499" style="fill:white;fill-rule:nonzero;"/>
        </g>
        <g transform="matrix(1,0,0,1,74.0195,111.782)">
            <path d="M0,-11.882L1.123,-11.419C1.3,-11.342 1.389,-11.252 1.389,-11.15C1.389,-11.08 1.346,-11.031 1.261,-11.003C1.139,-11.003 1.065,-10.955 1.042,-10.858C0.711,-10.122 0.387,-9.554 0.07,-9.152C-0.004,-9.069 -0.059,-9.028 -0.096,-9.028C-0.171,-9.028 -0.273,-9.065 -0.399,-9.139C-0.651,-9.263 -0.887,-9.374 -1.1,-9.475C-1.203,-9.511 -1.254,-9.543 -1.254,-9.568C-1.254,-9.582 -1.235,-9.609 -1.199,-9.651C-0.92,-10.026 -0.708,-10.353 -0.563,-10.631C-0.356,-10.992 -0.207,-11.354 -0.109,-11.715C-0.072,-11.827 -0.036,-11.882 0,-11.882M-3.028,-2.161L-1.639,-2.161L-1.639,2.825C-1.639,2.998 -1.741,3.086 -1.942,3.086L-2.745,3.086C-2.934,3.086 -3.028,2.998 -3.028,2.825L-3.028,-2.161ZM-1.227,-14.708C-1.227,-14.534 -1.296,-14.44 -1.433,-14.426C-1.57,-14.412 -1.639,-14.28 -1.639,-14.035L-1.639,-12.99C-1.639,-12.817 -1.741,-12.73 -1.942,-12.73L-2.745,-12.73C-2.934,-12.73 -3.028,-12.817 -3.028,-12.99L-3.028,-14.73C-3.028,-14.889 -2.933,-14.968 -2.742,-14.968C-1.732,-14.968 -1.227,-14.881 -1.227,-14.708M-4.145,-10.665C-3.95,-10.328 -3.783,-9.969 -3.644,-9.587C-3.644,-9.536 -4.05,-9.401 -4.86,-9.181C-4.915,-9.423 -5.029,-9.718 -5.205,-10.065C-5.403,-10.457 -5.661,-10.857 -5.979,-11.264C-5.979,-11.351 -5.638,-11.556 -4.956,-11.882C-4.622,-11.438 -4.353,-11.032 -4.145,-10.665M1.477,-5.093C1.612,-5.093 1.679,-5.018 1.679,-4.867L1.679,-4.238C1.679,-4.088 1.612,-4.012 1.477,-4.012L-5.988,-4.012C-6.124,-4.012 -6.191,-4.088 -6.191,-4.238L-6.191,-4.867C-6.191,-5.018 -6.124,-5.093 -5.988,-5.093L1.477,-5.093ZM0.984,-6.326L2.091,-7.407C2.279,-7.407 2.374,-7.32 2.374,-7.148L2.374,-1.882C2.374,-1.707 2.303,-1.62 2.163,-1.62L-6.603,-1.62L-5.497,-2.701L0.984,-2.701L0.984,-6.326ZM-6.69,-7.407L2.091,-7.407L0.984,-6.326L-5.497,-6.326L-5.497,-2.701L-6.603,-1.62C-6.791,-1.62 -6.885,-1.707 -6.885,-1.882L-6.885,-7.148C-6.885,-7.32 -6.82,-7.407 -6.69,-7.407M2.851,-13.309C2.996,-13.309 3.067,-13.229 3.067,-13.068L3.067,-12.393C3.067,-12.232 2.996,-12.151 2.851,-12.151L-7.441,-12.151C-7.584,-12.151 -7.656,-12.232 -7.656,-12.393L-7.656,-13.068C-7.656,-13.229 -7.584,-13.309 -7.441,-13.309L2.851,-13.309ZM3.467,-0.27C3.612,-0.27 3.685,-0.19 3.685,-0.029L3.685,0.645C3.685,0.806 3.612,0.887 3.467,0.887L-8.289,0.887C-8.434,0.887 -8.505,0.806 -8.505,0.645L-8.505,-0.029C-8.505,-0.19 -8.434,-0.27 -8.289,-0.27L3.467,-0.27ZM3.313,-9.915C3.459,-9.915 3.53,-9.834 3.53,-9.673L3.53,-8.999C3.53,-8.837 3.459,-8.757 3.313,-8.757L-8.289,-8.757C-8.434,-8.757 -8.505,-8.837 -8.505,-8.999L-8.505,-9.673C-8.505,-9.834 -8.434,-9.915 -8.289,-9.915L3.313,-9.915ZM-9.044,-14.312C-8.692,-14.312 -8.466,-14.264 -8.367,-14.168C-8.056,-13.867 -7.9,-13.613 -7.9,-13.408L-9.919,-8.393C-9.934,-8.314 -9.94,-8.242 -9.94,-8.176C-9.94,-8.124 -9.913,-8.072 -9.857,-8.02C-9.147,-7.273 -8.612,-6.529 -8.25,-5.792C-7.959,-5.086 -7.812,-4.406 -7.812,-3.752C-7.812,-2.589 -7.996,-1.734 -8.363,-1.189C-8.795,-0.499 -9.491,-0.154 -10.455,-0.154C-11.065,-0.154 -11.386,-0.284 -11.414,-0.542C-11.456,-0.841 -11.541,-1.185 -11.668,-1.573C-11.668,-1.771 -11.619,-1.872 -11.519,-1.872L-10.455,-1.735C-9.989,-1.735 -9.697,-1.927 -9.579,-2.312C-9.47,-2.681 -9.416,-3.222 -9.416,-3.934C-9.416,-4.483 -9.583,-5.075 -9.919,-5.713C-10.268,-6.453 -10.806,-7.148 -11.533,-7.795C-11.617,-7.856 -11.659,-7.906 -11.659,-7.946C-11.659,-7.999 -11.63,-8.1 -11.57,-8.245L-9.044,-14.312ZM-9.044,-14.312L-9.044,-13.154L-12.706,-13.154C-12.888,-13.154 -12.98,-13.231 -12.98,-13.382L-12.98,-14.085C-12.98,-14.236 -12.888,-14.312 -12.706,-14.312L-9.044,-14.312ZM-13.389,-14.312L-12.591,-14.312C-12.388,-14.312 -12.287,-14.235 -12.287,-14.077L-12.287,2.748C-12.287,2.922 -12.388,3.009 -12.591,3.009L-13.389,3.009C-13.58,3.009 -13.675,2.922 -13.675,2.748L-13.675,-14.077C-13.675,-14.235 -13.58,-14.312 -13.389,-14.312" style="fill:white;fill-rule:nonzero;"/>
        </g>
        <g transform="matrix(1,0,0,1,97.957,108.425)">
            <path d="M0,-4.937L0.325,-4.937C0.472,-4.937 0.569,-4.913 0.614,-4.865C0.82,-4.652 0.922,-4.49 0.922,-4.376L-0.278,-1.587C-0.303,-1.531 -0.334,-1.504 -0.371,-1.504C-0.999,-1.683 -1.311,-1.833 -1.311,-1.956L0,-4.937ZM-0.232,-0.116C-0.079,-0.116 0,-0.029 0,0.142L0,0.862C0,1.034 -0.079,1.119 -0.232,1.119L-2.393,1.119C-2.546,1.119 -2.624,1.034 -2.624,0.862L-2.624,0.142C-2.624,-0.029 -2.546,-0.116 -2.393,-0.116L-0.232,-0.116ZM-0.11,-10.714C0.336,-10.199 0.559,-9.905 0.559,-9.834C-0.624,-8.08 -1.363,-6.952 -1.662,-6.447C-1.712,-6.34 -1.761,-6.287 -1.812,-6.287C-1.908,-6.287 -2.01,-6.329 -2.119,-6.414C-2.335,-6.595 -2.559,-6.788 -2.788,-6.993C-2.884,-7.029 -2.932,-7.096 -2.932,-7.192L-0.11,-10.714ZM-3.241,-4.358L-2.006,-4.358L-2.006,5.44C-2.006,5.594 -2.096,5.671 -2.276,5.671L-2.99,5.671C-3.157,5.671 -3.241,5.594 -3.241,5.44L-3.241,-4.358ZM-0.507,-10.917C-0.324,-10.917 -0.19,-10.851 -0.11,-10.719L-0.31,-9.836L-4.412,-9.836C-4.558,-9.836 -4.629,-9.908 -4.629,-10.052L-4.629,-10.701C-4.629,-10.844 -4.558,-10.917 -4.412,-10.917L-0.507,-10.917ZM-2.882,-7.568C-2.244,-7.262 -1.674,-6.923 -1.172,-6.553C-0.792,-6.302 -0.466,-6.042 -0.195,-5.773C-0.167,-5.745 -0.155,-5.723 -0.155,-5.704C-0.155,-5.622 -0.438,-5.404 -1.004,-5.052C-1.045,-5.052 -1.085,-5.066 -1.127,-5.093C-1.575,-5.492 -2.056,-5.836 -2.57,-6.125C-2.883,-6.315 -3.214,-6.492 -3.567,-6.655C-4.014,-6.854 -4.503,-7.054 -5.032,-7.253C-5.073,-7.27 -5.092,-7.289 -5.092,-7.307C-5.092,-7.343 -4.887,-7.591 -4.478,-8.049C-4.405,-8.109 -4.32,-8.138 -4.224,-8.138C-3.805,-7.99 -3.357,-7.799 -2.882,-7.568M-4.624,0.656C-4.446,0.656 -4.353,0.729 -4.341,0.873C-4.309,1.538 -4.245,2.146 -4.15,2.695C-4.088,3.144 -4.002,3.52 -3.891,3.827C-3.809,4.108 -3.712,4.331 -3.602,4.499C-3.49,4.678 -3.352,4.812 -3.188,4.901C-3.052,4.991 -2.913,5.048 -2.768,5.074C-2.42,5.112 -1.929,5.131 -1.294,5.131C-0.923,5.131 -0.286,5.029 0.616,4.824C0.616,4.857 0.588,4.937 0.531,5.06C0.405,5.362 0.296,5.682 0.204,6.019C0.17,6.143 0.079,6.204 -0.07,6.204C-0.238,6.26 -0.646,6.289 -1.294,6.289C-2.318,6.289 -3.076,6.232 -3.566,6.12C-3.803,6.034 -4.009,5.89 -4.182,5.69C-4.395,5.467 -4.583,5.156 -4.747,4.758C-4.885,4.421 -5.008,3.999 -5.118,3.487C-5.271,2.866 -5.379,1.995 -5.444,0.873C-5.444,0.729 -5.369,0.656 -5.217,0.656L-4.624,0.656ZM0.308,-4.937L0,-3.78L-5.57,-3.78C-5.714,-3.78 -5.786,-3.86 -5.786,-4.021L-5.786,-4.695C-5.786,-4.857 -5.714,-4.937 -5.57,-4.937L0.308,-4.937ZM-5.401,-2.199L-3.742,-2.012C-3.742,-1.921 -3.782,-1.854 -3.859,-1.809C-4.025,-1.718 -4.108,-1.616 -4.108,-1.504C-4.122,-0.444 -4.149,0.365 -4.194,0.919C-4.227,1.458 -4.288,2.004 -4.38,2.559C-4.468,3.064 -4.585,3.546 -4.732,4.002C-4.868,4.477 -5.026,4.876 -5.208,5.202C-5.442,5.627 -5.796,6.092 -6.27,6.597C-6.351,6.597 -6.419,6.534 -6.476,6.41C-6.659,6.206 -6.868,6.013 -7.097,5.833C-7.201,5.753 -7.252,5.673 -7.252,5.594C-7.149,5.511 -7.016,5.386 -6.849,5.221C-6.666,5.021 -6.512,4.823 -6.387,4.623C-6.22,4.374 -6.086,4.108 -5.984,3.826C-5.851,3.495 -5.732,3.122 -5.63,2.707C-5.537,2.325 -5.458,1.91 -5.394,1.46C-5.333,0.963 -5.293,0.474 -5.271,-0.008C-5.241,-0.621 -5.284,-1.352 -5.401,-2.199M-7.406,2.036C-7.222,2.466 -6.914,2.952 -6.483,3.495C-6.431,3.533 -6.405,3.577 -6.405,3.628C-6.405,3.669 -6.447,3.725 -6.531,3.793C-6.671,3.971 -6.854,4.164 -7.079,4.369C-7.163,4.465 -7.234,4.515 -7.291,4.515C-7.325,4.515 -7.37,4.488 -7.423,4.438C-7.73,4.002 -8,3.518 -8.229,2.981C-8.458,2.406 -8.679,1.729 -8.889,0.949L-7.985,0.424C-7.775,1.12 -7.582,1.657 -7.406,2.036M-6.375,-3.664C-6.24,-3.664 -6.173,-3.589 -6.173,-3.439L-6.173,-2.81C-6.173,-2.66 -6.24,-2.583 -6.375,-2.583L-9.982,-2.583C-10.117,-2.583 -10.184,-2.66 -10.184,-2.81L-10.184,-3.439C-10.184,-3.589 -10.117,-3.664 -9.982,-3.664L-6.375,-3.664ZM-6.882,-10.686C-6.822,-10.686 -6.753,-10.634 -6.679,-10.529C-6.187,-9.891 -5.942,-9.55 -5.942,-9.506C-5.942,-9.388 -5.988,-9.329 -6.081,-9.329L-6.502,-9.401L-6.553,-9.401C-6.823,-9.22 -7.121,-9.037 -7.45,-8.856C-7.855,-8.674 -8.29,-8.511 -8.753,-8.366C-9.126,-8.22 -9.61,-8.093 -10.208,-7.985L-10.57,-9.033C-9.972,-9.155 -9.437,-9.308 -8.962,-9.492C-8.513,-9.645 -8.095,-9.844 -7.71,-10.088C-7.429,-10.242 -7.169,-10.441 -6.932,-10.686L-6.882,-10.686ZM-9.603,-11.245C-9.603,-11.17 -9.674,-11.074 -9.819,-10.955L-9.819,-7.258C-9.819,-7.101 -9.741,-7.022 -9.584,-7.022L-7.424,-7.022C-7.167,-7.022 -6.925,-7.445 -6.699,-8.293L-5.633,-7.625C-6.019,-6.476 -6.508,-5.902 -7.098,-5.902L-10.037,-5.902C-10.664,-5.902 -10.977,-6.166 -10.977,-6.697L-10.977,-11.316C-10.977,-11.461 -10.924,-11.534 -10.819,-11.534C-10.008,-11.459 -9.603,-11.362 -9.603,-11.245M-6.297,-0.038C-6.163,-0.038 -6.095,0.038 -6.095,0.188L-6.095,0.817C-6.095,0.967 -6.163,1.042 -6.297,1.042L-11.062,1.042C-11.198,1.042 -11.265,0.967 -11.265,0.817L-11.265,0.188C-11.265,0.038 -11.198,-0.038 -11.062,-0.038L-6.297,-0.038ZM-10.051,-5.439L-8.998,-5.005C-8.832,-4.933 -8.749,-4.848 -8.749,-4.751C-8.749,-4.614 -8.803,-4.519 -8.913,-4.465C-9.068,-4.465 -9.162,-4.37 -9.193,-4.178C-9.614,-2.733 -10.027,-1.614 -10.433,-0.824C-10.526,-0.66 -10.596,-0.577 -10.642,-0.577C-10.713,-0.577 -10.808,-0.613 -10.927,-0.682C-11.165,-0.799 -11.384,-0.904 -11.585,-0.997C-11.681,-1.032 -11.728,-1.061 -11.728,-1.084C-11.728,-1.11 -11.703,-1.162 -11.655,-1.242C-11.282,-1.947 -10.998,-2.562 -10.804,-3.084C-10.529,-3.765 -10.327,-4.445 -10.196,-5.125C-10.148,-5.334 -10.099,-5.439 -10.051,-5.439M-7.61,-3.299C-7.461,-3.253 -7.388,-3.192 -7.388,-3.114C-7.388,-2.991 -7.434,-2.906 -7.526,-2.861C-7.724,-2.806 -7.822,-2.683 -7.822,-2.492C-7.822,-0.432 -7.923,1.08 -8.125,2.04C-8.396,3.093 -8.803,4.007 -9.344,4.778C-9.75,5.329 -10.257,5.833 -10.867,6.289L-11.069,6.289C-11.431,6.178 -11.778,6.057 -12.105,5.926C-12.162,5.893 -12.191,5.827 -12.191,5.728C-11.456,5.295 -10.87,4.814 -10.428,4.283C-9.988,3.751 -9.658,3.086 -9.438,2.289C-9.144,1.441 -8.997,0.004 -8.997,-2.022C-8.997,-2.249 -9.016,-2.663 -9.051,-3.263C-9.051,-3.375 -8.978,-3.433 -8.828,-3.433L-7.61,-3.299ZM-12.793,2.393C-12.649,2.393 -12.576,2.473 -12.576,2.634L-12.576,3.309C-12.576,3.469 -12.649,3.549 -12.793,3.549L-15.137,3.549C-15.281,3.549 -15.354,3.469 -15.354,3.309L-15.354,2.634C-15.354,2.473 -15.281,2.393 -15.137,2.393L-12.793,2.393ZM-12.287,-4.165C-12.121,-4.165 -12.037,-4.089 -12.037,-3.934L-12.037,4.206C-12.037,4.359 -12.126,4.437 -12.309,4.437L-13.017,4.437C-13.186,4.437 -13.27,4.359 -13.27,4.206L-13.27,-3.008L-15.137,-3.008C-15.281,-3.008 -15.354,-3.085 -15.354,-3.24L-15.354,-3.934C-15.354,-4.089 -15.281,-4.165 -15.137,-4.165L-12.287,-4.165ZM-15.717,-4.165L-15.009,-4.165C-14.828,-4.165 -14.736,-4.087 -14.736,-3.931L-14.736,6.057C-14.736,6.212 -14.828,6.289 -15.009,6.289L-15.717,6.289C-15.886,6.289 -15.971,6.212 -15.971,6.057L-15.971,-3.931C-15.971,-4.087 -15.886,-4.165 -15.717,-4.165M-12.022,-10.106C-11.877,-10.106 -11.805,-10.026 -11.805,-9.865L-11.805,-9.19C-11.805,-9.029 -11.877,-8.949 -12.022,-8.949L-16.989,-8.949C-17.133,-8.949 -17.205,-9.029 -17.205,-9.19L-17.205,-9.865C-17.205,-10.026 -17.133,-10.106 -16.989,-10.106L-12.022,-10.106ZM-15.045,-9.604L-13.869,-9.161C-14.097,-7.895 -14.33,-6.749 -14.568,-5.721C-14.852,-4.666 -15.152,-3.73 -15.472,-2.913C-15.783,-2.043 -16.149,-1.238 -16.569,-0.501C-16.715,-0.501 -16.824,-0.536 -16.896,-0.607C-17.172,-0.735 -17.45,-0.87 -17.725,-1.011C-17.842,-1.011 -17.9,-1.047 -17.9,-1.118C-17.333,-2.056 -16.878,-2.981 -16.535,-3.894C-16.191,-4.75 -15.927,-5.595 -15.741,-6.428C-15.555,-7.044 -15.347,-8.063 -15.114,-9.484C-15.114,-9.564 -15.091,-9.604 -15.045,-9.604" style="fill:white;fill-rule:nonzero;"/>
        </g>
        <g transform="matrix(1,0,0,1,117.569,100.135)">
            <path d="M0,11.72C0.49,12.219 0.909,12.67 1.257,13.076C1.257,13.101 1.224,13.157 1.157,13.245C0.772,13.774 0.567,14.039 0.54,14.039C0.008,13.402 -0.563,12.81 -1.172,12.264C-1.673,11.84 -2.088,11.537 -2.416,11.354C-2.416,11.291 -2.207,11.021 -1.792,10.547C-1.727,10.457 -1.675,10.412 -1.636,10.412C-0.973,10.879 -0.426,11.315 0,11.72M-3.797,-1.778L-2.486,-1.778L-2.486,3.763C-2.486,3.926 -2.581,4.009 -2.772,4.009L-3.53,4.009C-3.708,4.009 -3.797,3.926 -3.797,3.763L-3.797,-1.778ZM-6.883,-1.778L-5.572,-1.778L-5.572,3.763C-5.572,3.926 -5.667,4.009 -5.858,4.009L-6.617,4.009C-6.794,4.009 -6.883,3.926 -6.883,3.763L-6.883,-1.778ZM-5.224,8.869L-3.835,8.869L-3.835,13.236C-3.835,14.234 -4.632,14.733 -6.221,14.733L-7.075,14.733C-7.172,14.733 -7.222,14.617 -7.222,14.389C-7.25,14.091 -7.374,13.747 -7.597,13.357C-7.597,13.276 -7.574,13.236 -7.531,13.236C-7.12,13.337 -6.719,13.387 -6.332,13.387C-5.593,13.387 -5.224,13.148 -5.224,12.671L-5.224,8.869ZM-0.349,5.899C-0.204,5.899 -0.132,5.979 -0.132,6.14L-0.132,6.815C-0.132,6.975 -0.204,7.056 -0.349,7.056L-8.787,7.056C-8.932,7.056 -9.004,6.975 -9.004,6.815L-9.004,6.14C-9.004,5.979 -8.932,5.899 -8.787,5.899L-0.349,5.899ZM-0.749,1.501L0.357,0.344C0.546,0.344 0.639,0.43 0.639,0.604L0.639,4.327C0.639,4.499 0.56,4.588 0.401,4.588L-9.571,4.588L-8.464,3.43L-0.749,3.43L-0.749,1.501ZM-9.631,0.344L0.357,0.344L-0.749,1.501L-8.464,1.501L-8.464,3.43L-9.571,4.588C-9.759,4.588 -9.853,4.499 -9.853,4.327L-9.853,0.604C-9.853,0.43 -9.779,0.344 -9.631,0.344M0.963,-2.357C1.107,-2.357 1.181,-2.277 1.181,-2.115L1.181,-1.44C1.181,-1.279 1.107,-1.199 0.963,-1.199L-9.945,-1.199C-10.089,-1.199 -10.162,-1.279 -10.162,-1.44L-10.162,-2.115C-10.162,-2.277 -10.089,-2.357 -9.945,-2.357L0.963,-2.357ZM0.886,8.29C1.03,8.29 1.103,8.371 1.103,8.532L1.103,9.206C1.103,9.367 1.03,9.448 0.886,9.448L-10.1,9.448C-10.243,9.448 -10.315,9.367 -10.315,9.206L-10.315,8.532C-10.315,8.371 -10.243,8.29 -10.1,8.29L0.886,8.29ZM-7.982,10.412L-6.922,11.203C-6.818,11.307 -6.768,11.39 -6.768,11.454C-6.768,11.499 -6.812,11.53 -6.904,11.545C-7.025,11.559 -7.123,11.597 -7.198,11.66C-7.532,12.07 -7.887,12.449 -8.266,12.798C-8.705,13.178 -9.273,13.566 -9.969,13.961C-10.121,13.961 -10.222,13.91 -10.272,13.807C-10.538,13.601 -10.759,13.415 -10.936,13.247C-11.038,13.209 -11.087,13.163 -11.087,13.113C-11.087,13.082 -11.065,13.053 -11.019,13.023C-10.688,12.903 -10.416,12.767 -10.203,12.617C-9.75,12.317 -9.357,11.994 -9.025,11.65C-8.739,11.35 -8.42,10.974 -8.073,10.524C-8.042,10.45 -8.012,10.412 -7.982,10.412M-11.497,4.315C-11.224,5.035 -10.767,5.847 -10.125,6.758C-10.047,6.822 -10.008,6.895 -10.008,6.98C-10.008,7.021 -10.05,7.076 -10.134,7.145C-10.274,7.324 -10.458,7.516 -10.682,7.722C-10.768,7.818 -10.838,7.866 -10.894,7.866C-10.946,7.866 -11.011,7.825 -11.089,7.743C-11.547,7.046 -11.945,6.265 -12.285,5.404C-12.625,4.481 -12.952,3.393 -13.264,2.141L-12.361,1.616C-12.047,2.781 -11.76,3.679 -11.497,4.315M-12.064,-2.829C-12.064,-2.655 -12.133,-2.561 -12.27,-2.548C-12.407,-2.533 -12.477,-2.402 -12.477,-2.156L-12.477,14.549C-12.477,14.722 -12.578,14.81 -12.78,14.81L-13.584,14.81C-13.771,14.81 -13.865,14.722 -13.865,14.549L-13.865,-2.851C-13.865,-3.01 -13.77,-3.09 -13.579,-3.09C-12.57,-3.09 -12.064,-3.003 -12.064,-2.829M-10.702,1C-10.547,1 -10.471,1.085 -10.471,1.257L-10.471,1.977C-10.471,2.149 -10.547,2.235 -10.702,2.235L-16.18,2.235C-16.334,2.235 -16.411,2.149 -16.411,1.977L-16.411,1.257C-16.411,1.085 -16.334,1 -16.18,1L-10.702,1ZM-13.942,1.616L-12.766,2.06C-13,3.326 -13.24,4.472 -13.485,5.501C-13.776,6.556 -14.087,7.491 -14.415,8.308C-14.734,9.178 -15.111,9.982 -15.543,10.72C-15.688,10.72 -15.797,10.685 -15.871,10.615C-16.146,10.486 -16.422,10.352 -16.7,10.209C-16.815,10.209 -16.875,10.176 -16.875,10.103C-16.293,9.165 -15.825,8.24 -15.473,7.328C-15.121,6.47 -14.849,5.625 -14.657,4.794C-14.467,4.178 -14.252,3.158 -14.014,1.737C-14.014,1.657 -13.991,1.616 -13.942,1.616" style="fill:white;fill-rule:nonzero;"/>
        </g>
        <g transform="matrix(1,0,0,1,134.277,112.398)">
            <path d="M0,-13.038L1.193,-12.547C1.381,-12.464 1.477,-12.368 1.477,-12.26C1.477,-12.204 1.427,-12.166 1.329,-12.144C1.19,-12.144 1.105,-12.105 1.079,-12.027C0.703,-11.442 0.333,-10.989 -0.03,-10.668C-0.113,-10.602 -0.176,-10.569 -0.217,-10.569C-0.298,-10.569 -0.406,-10.609 -0.541,-10.688C-0.809,-10.82 -1.058,-10.939 -1.286,-11.044C-1.394,-11.084 -1.447,-11.117 -1.447,-11.143C-1.447,-11.155 -1.427,-11.178 -1.385,-11.212C-1.063,-11.519 -0.819,-11.786 -0.65,-12.014C-0.413,-12.31 -0.237,-12.606 -0.125,-12.901C-0.084,-12.993 -0.042,-13.038 0,-13.038M-2.733,-15.324C-2.733,-15.15 -2.801,-15.057 -2.938,-15.042C-3.076,-15.028 -3.145,-14.897 -3.145,-14.651L-3.145,-13.839C-3.145,-13.666 -3.246,-13.578 -3.449,-13.578L-4.251,-13.578C-4.44,-13.578 -4.533,-13.666 -4.533,-13.839L-4.533,-15.346C-4.533,-15.505 -4.439,-15.584 -4.249,-15.584C-3.238,-15.584 -2.733,-15.497 -2.733,-15.324M-4.611,-2.855L-3.222,-2.855L-3.222,2.286C-3.222,2.459 -3.323,2.546 -3.526,2.546L-4.329,2.546C-4.517,2.546 -4.611,2.459 -4.611,2.286L-4.611,-2.855ZM-6.897,-12.017C-6.667,-11.755 -6.471,-11.477 -6.308,-11.18C-6.308,-11.122 -6.764,-10.97 -7.675,-10.724C-7.74,-10.902 -7.877,-11.121 -8.084,-11.377C-8.319,-11.669 -8.625,-11.964 -9.001,-12.267C-9.001,-12.363 -8.617,-12.595 -7.851,-12.961C-7.459,-12.617 -7.141,-12.302 -6.897,-12.017M1.73,-5.902C1.875,-5.902 1.946,-5.821 1.946,-5.661L1.946,-4.986C1.946,-4.825 1.875,-4.745 1.73,-4.745L-9.254,-4.745C-9.399,-4.745 -9.471,-4.825 -9.471,-4.986L-9.471,-5.661C-9.471,-5.821 -9.399,-5.902 -9.254,-5.902L1.73,-5.902ZM1.253,-7.214L2.36,-8.37C2.547,-8.37 2.641,-8.284 2.641,-8.11L2.641,-2.535C2.641,-2.363 2.544,-2.275 2.349,-2.275L-9.883,-2.275L-8.777,-3.433L1.253,-3.433L1.253,-7.214ZM-9.893,-8.37L2.36,-8.37L1.253,-7.214L-8.777,-7.214L-8.777,-3.433L-9.883,-2.275C-10.072,-2.275 -10.166,-2.363 -10.166,-2.535L-10.166,-8.11C-10.166,-8.284 -10.076,-8.37 -9.893,-8.37M3.196,-14.157C3.341,-14.157 3.413,-14.077 3.413,-13.916L3.413,-13.24C3.413,-13.08 3.341,-13 3.196,-13L-10.72,-13C-10.865,-13 -10.938,-13.08 -10.938,-13.24L-10.938,-13.916C-10.938,-14.077 -10.865,-14.157 -10.72,-14.157L3.196,-14.157ZM4.507,-10.763C4.652,-10.763 4.724,-10.682 4.724,-10.521L4.724,-9.847C4.724,-9.685 4.652,-9.605 4.507,-9.605L-12.031,-9.605C-12.176,-9.605 -12.249,-9.685 -12.249,-9.847L-12.249,-10.521C-12.249,-10.682 -12.176,-10.763 -12.031,-10.763L4.507,-10.763ZM4.507,-0.886C4.652,-0.886 4.724,-0.806 4.724,-0.646L4.724,0.029C4.724,0.19 4.652,0.27 4.507,0.27L-12.109,0.27C-12.253,0.27 -12.326,0.19 -12.326,0.029L-12.326,-0.646C-12.326,-0.806 -12.253,-0.886 -12.109,-0.886L4.507,-0.886Z" style="fill:white;fill-rule:nonzero;"/>
        </g>
        <g transform="matrix(1,0,0,1,151.171,98.8978)">
            <path d="M0,14.215L-9.354,14.215C-9.38,13.237 -8.937,12.208 -8.023,11.129C-7.47,10.473 -6.596,9.669 -5.4,8.718C-4.474,7.972 -3.658,7.206 -2.952,6.422C-2.192,5.573 -1.812,4.732 -1.812,3.896C-1.812,3.189 -2.069,2.598 -2.584,2.122C-3.086,1.658 -3.716,1.427 -4.474,1.427C-5.015,1.427 -5.51,1.555 -5.959,1.813C-6.808,2.276 -7.239,3.105 -7.251,4.3L-9.025,4.088C-8.962,3.432 -8.833,2.892 -8.64,2.468C-7.92,0.822 -6.519,0 -4.436,0C-2.969,0 -1.833,0.437 -1.021,1.311C-0.366,2.045 -0.037,2.918 -0.037,3.934C-0.037,4.719 -0.251,5.464 -0.676,6.172C-1.214,7.047 -2.153,8.062 -3.491,9.218L-4.917,10.414C-5.857,11.161 -6.531,11.869 -6.943,12.536L0,12.536L0,14.215Z" style="fill:white;fill-rule:nonzero;"/>
        </g>
        <g transform="matrix(-1,0,0,1,310.964,-175.761)">
            <rect x="154.489" y="286.887" width="1.986" height="1.987" style="fill:white;"/>
        </g>
        <g transform="matrix(1,0,0,1,165.624,98.9692)">
            <path d="M0,14.375L-1.836,14.375L-1.836,3.174C-2.279,3.578 -2.858,3.981 -3.576,4.385C-4.293,4.789 -4.937,5.091 -5.509,5.293L-5.509,3.594C-4.482,3.131 -3.584,2.572 -2.816,1.914C-2.047,1.256 -1.503,0.619 -1.184,0L0,0L0,14.375Z" style="fill:white;fill-rule:nonzero;"/>
        </g>
    </g>
</svg>
